<svg width="24" height="24" viewBox="0 0 24 24" fill="none" xmlns="http://www.w3.org/2000/svg">
<path d="M18.8473 23.0371C17.5408 24.3036 16.1143 24.1036 14.7412 23.5037C13.288 22.8904 11.9548 22.8638 10.4217 23.5037C8.50195 24.3303 7.48874 24.0903 6.34222 23.0371C-0.163623 16.3313 0.796256 6.11923 8.18199 5.74594C9.98176 5.83926 11.2349 6.73248 12.2881 6.81247C13.8613 6.49251 15.3678 5.57263 17.0475 5.69261C19.0606 5.85259 20.5804 6.65249 21.5803 8.09231C17.4208 10.5853 18.4074 16.0646 22.2202 17.5978C21.4603 19.5975 20.4738 21.5839 18.834 23.0504L18.8473 23.0371ZM12.1548 5.66595C11.9548 2.69299 14.3679 0.23997 17.1409 0C17.5275 3.43957 14.0213 5.99924 12.1548 5.66595Z" fill="black"/>
</svg>
