<svg width="41" height="40" viewBox="0 0 41 40" fill="none" xmlns="http://www.w3.org/2000/svg">
<g clip-path="url(#clip0_2760_2532)">
<path d="M20.5008 40C31.5471 40 40.5017 31.0455 40.5017 19.9992C40.5017 8.95537 31.5471 0 20.5008 0C9.45454 0 0.5 8.95454 0.5 20C0.5 31.0455 9.45454 40 20.5008 40Z" fill="white"/>
<path d="M29.4597 12.5005H10.7095L12.5486 34.5703C12.569 34.813 12.7721 35 13.0149 35H27.1533C27.2708 34.9998 27.3841 34.9556 27.4706 34.8761C27.5571 34.7965 27.6106 34.6874 27.6206 34.5703L29.4597 12.5005Z" fill="#8E6134"/>
<path d="M20.0846 12.5005H10.7095L12.5486 34.5703C12.569 34.8141 12.7721 35 13.0149 35H20.0846V12.5005Z" fill="#A97A45"/>
<path d="M31.3351 11.5628C31.3351 12.0806 30.9161 12.5007 30.3973 12.5007H9.77133C9.5226 12.5007 9.28406 12.4019 9.10818 12.226C8.9323 12.0501 8.8335 11.8116 8.8335 11.5628V9.6893C8.8335 9.1715 9.25246 8.75146 9.77133 8.75146H30.3973C30.9151 8.75146 31.3351 9.17043 31.3351 9.6893V11.5628Z" fill="#E2E4E5"/>
<path d="M9.87321 19.1556C9.86033 19.0253 9.87484 18.8938 9.91581 18.7694C9.95678 18.6451 10.0233 18.5307 10.1111 18.4335C10.1989 18.3364 10.3061 18.2587 10.4257 18.2055C10.5453 18.1522 10.6747 18.1246 10.8057 18.1243H29.3604C29.4914 18.1244 29.6209 18.152 29.7406 18.2052C29.8603 18.2584 29.9675 18.336 30.0554 18.4332C30.1432 18.5303 30.2097 18.6448 30.2506 18.7693C30.2915 18.8937 30.3059 19.0253 30.2929 19.1556L29.543 26.6562C29.5199 26.8874 29.4117 27.1019 29.2394 27.2579C29.0671 27.4139 28.843 27.5004 28.6106 27.5005H11.5555C11.3229 27.5006 11.0986 27.4143 10.926 27.2582C10.7535 27.1022 10.6452 26.8876 10.622 26.6562L9.87321 19.1556ZM29.4582 8.75027L28.1014 6.03667C27.9452 5.72556 27.7058 5.46392 27.4097 5.28088C27.1136 5.09785 26.7725 5.00061 26.4244 5H13.7416C13.0305 5 12.3816 5.40178 12.0636 6.03667L10.7068 8.75027H29.4582Z" fill="#F0F1F1"/>
<path d="M18.8405 23.6837C18.7945 23.7189 18.7371 23.7358 18.6794 23.7311C18.6217 23.7265 18.5678 23.7007 18.528 23.6586C18.4882 23.6166 18.4654 23.5613 18.464 23.5034C18.4626 23.4456 18.4827 23.3892 18.5203 23.3453C19.3529 22.3516 21.5218 21.157 22.8174 20.4985C21.8097 19.5166 20.0007 19.3318 18.3699 20.1515C16.4169 21.1344 15.464 23.1841 16.2429 24.7311C17.0207 26.277 19.2347 26.7335 21.1877 25.7506C23.1397 24.7687 24.0926 22.7211 23.318 21.1742C22.3329 21.6361 20.1597 22.6996 18.8405 23.6837Z" fill="#692E19"/>
<path d="M20.0846 5H13.7432C13.0331 5 12.3832 5.40178 12.0652 6.03667L10.7095 8.75027H20.0846V5Z" fill="white"/>
<path d="M20.0843 8.75049H9.77133C9.5226 8.75049 9.28406 8.8493 9.10818 9.02517C8.9323 9.20105 8.8335 9.4396 8.8335 9.68832V11.5629C8.8335 12.0807 9.25353 12.5008 9.77133 12.5008H20.0843V8.75049Z" fill="#F0F1F1"/>
</g>
<defs>
<clipPath id="clip0_2760_2532">
<rect width="40" height="40" fill="white" transform="translate(0.5)"/>
</clipPath>
</defs>
</svg>
