<svg width="39" height="24" viewBox="0 0 39 24" fill="none" xmlns="http://www.w3.org/2000/svg">
<path d="M37.6729 3.75815C37.4519 3.03171 37.0208 2.36945 36.4226 1.83732C35.8244 1.30519 35.0799 0.921763 34.2633 0.725221C31.2735 0 19.2419 0 19.2419 0C19.2419 0 7.20987 0.0220082 4.22059 0.747229C3.40401 0.943803 2.65957 1.32725 2.06139 1.85937C1.46322 2.3915 1.03218 3.05375 0.811206 3.78016C-0.0930949 8.50563 -0.44393 15.7056 0.835945 20.2418C1.05692 20.9683 1.48796 21.6305 2.08613 22.1626C2.68431 22.6948 3.42875 23.0782 4.24533 23.2748C7.23485 24 19.2667 24 19.2667 24C19.2667 24 31.2985 24 34.288 23.2748C35.1046 23.0782 35.849 22.6948 36.4472 22.1626C37.0454 21.6305 37.4764 20.9683 37.6974 20.2418C38.6509 15.5099 38.945 8.31426 37.6726 3.75836" fill="#FF0000"/>
<path d="M15.4126 17.143L25.3938 12.0002L15.4126 6.85718V17.143Z" fill="white"/>
</svg>
