<svg width="24" height="24" viewBox="0 0 24 24" fill="none" xmlns="http://www.w3.org/2000/svg">
<path d="M6.23979 22.2655H18.0624C19.8701 22.2655 20.9149 21.2211 20.9149 19.1515V8.75566C20.9149 6.68652 19.8602 5.64166 17.7607 5.64166H16.1638C16.1038 3.53223 14.2755 1.73438 12.0054 1.73438C9.72537 1.73438 7.89708 3.53223 7.83665 5.64166H6.24022C4.15094 5.64166 3.08594 6.67623 3.08594 8.75566V19.1519C3.08594 21.2309 4.15094 22.2655 6.24022 22.2655M12.0054 3.26137C13.4214 3.26137 14.4962 4.32637 14.5468 5.64209H9.46394C9.50422 4.32637 10.5791 3.26137 12.0054 3.26137Z" fill="black"/>
</svg>
