<svg width="24" height="24" viewBox="0 0 24 24" fill="none" xmlns="http://www.w3.org/2000/svg">
<path d="M7.44251 5.3501C8.08151 5.3501 8.67251 5.4001 9.21251 5.5481C9.75351 5.6471 10.1965 5.8451 10.5895 6.0921C10.9835 6.33943 11.2785 6.68576 11.4745 7.1311C11.6715 7.5761 11.7705 8.1211 11.7705 8.7141C11.7705 9.4071 11.6225 10.0001 11.2785 10.4451C10.9835 10.8911 10.4915 11.2861 9.90151 11.5831C10.7375 11.8311 11.3765 12.2761 11.7705 12.8691C12.1645 13.4621 12.4095 14.2051 12.4095 15.0461C12.4095 15.7391 12.2615 16.3321 12.0155 16.8271C11.7705 17.3221 11.3765 17.7671 10.9335 18.0641C10.4521 18.3821 9.92021 18.6161 9.36051 18.7561C8.77051 18.9051 8.18051 19.0041 7.59051 19.0041H0.999512V5.3501H7.44251ZM7.04851 10.8901C7.58951 10.8901 8.03251 10.7421 8.37651 10.4951C8.72051 10.2481 8.86851 9.8021 8.86851 9.2581C8.86851 8.9611 8.81851 8.6641 8.72051 8.4671C8.62251 8.2701 8.47451 8.1201 8.27851 7.9721C8.07811 7.85954 7.86257 7.77636 7.63851 7.7251C7.39251 7.6751 7.14751 7.6751 6.85151 7.6751H3.99951V10.8911L7.04851 10.8901ZM7.19651 16.7281C7.49151 16.7281 7.78651 16.6781 8.03251 16.6291C8.27851 16.5791 8.52451 16.4811 8.72051 16.3321C8.92011 16.1865 9.08759 16.0013 9.21251 15.7881C9.31051 15.5411 9.40951 15.2441 9.40951 14.8981C9.40951 14.2051 9.21251 13.7101 8.81951 13.3641C8.42551 13.0671 7.88451 12.9191 7.24551 12.9191H3.99951V16.7291L7.19651 16.7281ZM16.6885 16.6781C17.0818 17.0741 17.6718 17.2721 18.4585 17.2721C18.9995 17.2721 19.4915 17.1241 19.8845 16.8771C20.2785 16.5798 20.5245 16.2828 20.6225 15.9861H23.0325C22.6385 17.1731 22.0485 18.0141 21.2625 18.5581C20.4745 19.0531 19.5405 19.3501 18.4095 19.3501C17.686 19.3512 16.9686 19.2169 16.2945 18.9541C15.6876 18.7278 15.1467 18.3538 14.7205 17.8661C14.2628 17.4114 13.9251 16.8504 13.7375 16.2331C13.4915 15.5901 13.3925 14.8981 13.3925 14.1061C13.3925 13.3641 13.4915 12.6721 13.7375 12.0281C13.9735 11.4077 14.3239 10.8371 14.7705 10.3461C15.2125 9.9011 15.7535 9.5061 16.3435 9.2581C17.0003 8.9944 17.7018 8.85994 18.4095 8.8621C19.2455 8.8621 19.9835 9.0111 20.6225 9.3571C21.2625 9.7031 21.7535 10.0991 22.1465 10.6931C22.5405 11.2371 22.8365 11.8801 23.0325 12.5731C23.1305 13.2651 23.1795 13.9581 23.1305 14.7491H15.9995C15.9995 15.5411 16.2945 16.2831 16.6885 16.6791M19.7865 11.4851C19.4425 11.1391 18.9015 10.9411 18.2615 10.9411C17.8863 10.9355 17.5152 11.0202 17.1795 11.1881C16.8845 11.3371 16.6885 11.5351 16.4915 11.7331C16.3094 11.9236 16.1894 12.1649 16.1475 12.4251C16.0975 12.6731 16.0485 12.8701 16.0485 13.0681H20.4745C20.3765 12.3261 20.1305 11.8321 19.7865 11.4851ZM15.4585 6.2901H20.9665V7.6261H15.4595L15.4585 6.2901Z" fill="black"/>
</svg>
