<svg width="24" height="24" viewBox="0 0 24 24" fill="none" xmlns="http://www.w3.org/2000/svg">
<path d="M12 4.00003L12.759 3.34903C12.6651 3.23959 12.5487 3.15175 12.4177 3.09153C12.2867 3.0313 12.1442 3.00012 12 3.00012C11.8558 3.00012 11.7133 3.0313 11.5823 3.09153C11.4513 3.15175 11.3349 3.23959 11.241 3.34903L12 4.00003ZM12 4.00003L11.24 3.35003V3.35103L11.235 3.35503L11.222 3.37103L11.007 3.63203C10.1425 4.71647 9.3517 5.8577 8.64 7.04803C7.367 9.19003 6 12.133 6 15H8C8 12.69 9.133 10.134 10.36 8.07003C11.0227 6.96184 11.7587 5.89914 12.563 4.88903L12.759 4.65103L12 4.00003ZM18 15C18 12.133 16.633 9.19003 15.36 7.04803C14.6483 5.8577 13.8575 4.71647 12.993 3.63203L12.778 3.37103L12.765 3.35503L12.761 3.35103L12.759 3.34903L12 4.00003L11.241 4.65103L11.243 4.65303L11.288 4.70703C11.322 4.74703 11.3717 4.8077 11.437 4.88903C12.2413 5.89914 12.9773 6.96184 13.64 8.07003C14.866 10.134 16 12.69 16 15H18ZM16 15C16 16.0609 15.5786 17.0783 14.8284 17.8285C14.0783 18.5786 13.0609 19 12 19V21C13.5913 21 15.1174 20.3679 16.2426 19.2427C17.3679 18.1175 18 16.5913 18 15H16ZM12 19C10.9391 19 9.92172 18.5786 9.17157 17.8285C8.42143 17.0783 8 16.0609 8 15H6C6 16.5913 6.63214 18.1175 7.75736 19.2427C8.88258 20.3679 10.4087 21 12 21V19Z" fill="black"/>
</svg>
