<svg width="24" height="24" viewBox="0 0 24 24" fill="none" xmlns="http://www.w3.org/2000/svg">
<path d="M14 4H6V12H14C15.0609 12 16.0783 11.5786 16.8284 10.8284C17.5786 10.0783 18 9.06087 18 8C18 6.93913 17.5786 5.92172 16.8284 5.17157C16.0783 4.42143 15.0609 4 14 4Z" stroke="#1F2223" stroke-width="2" stroke-linecap="round" stroke-linejoin="round"/>
<path d="M15 12H6V20H15C16.0609 20 17.0783 19.5786 17.8284 18.8284C18.5786 18.0783 19 17.0609 19 16C19 14.9391 18.5786 13.9217 17.8284 13.1716C17.0783 12.4214 16.0609 12 15 12Z" stroke="#1F2223" stroke-width="2" stroke-linecap="round" stroke-linejoin="round"/>
</svg>
