<svg width="24" height="24" viewBox="0 0 24 24" fill="none" xmlns="http://www.w3.org/2000/svg">
<path d="M10 5H14V3C14 2.73478 13.8946 2.48043 13.7071 2.29289C13.5196 2.10536 13.2652 2 13 2H11C10.7348 2 10.4804 2.10536 10.2929 2.29289C10.1054 2.48043 10 2.73478 10 3V4V5Z" stroke="black" stroke-width="2" stroke-linecap="round" stroke-linejoin="round"/>
<path d="M14 4C14 5.76537 14.507 7.48731 15.45 8.92589L15.5 9.00189C16.4754 10.4903 16.9996 12.2715 17 14.0982V20.8286C17 21.4045 16.7893 21.9568 16.4142 22.364C16.0391 22.7712 15.5304 23 15 23H9C8.46957 23 7.96086 22.7712 7.58579 22.364C7.21071 21.9568 7 21.4045 7 20.8286V14.0971C7 12.271 7.524 10.4904 8.5 9.00189L8.55 8.92589C9.49335 7.48757 10.0002 5.76572 10 4" stroke="black" stroke-width="2" stroke-linecap="round" stroke-linejoin="round"/>
</svg>
