<svg width="24" height="24" viewBox="0 0 24 24" fill="none" xmlns="http://www.w3.org/2000/svg">
<path fill-rule="evenodd" clip-rule="evenodd" d="M11.938 1.25H12.062C14.131 1.25 15.768 1.25 17.049 1.441C18.372 1.639 19.422 2.055 20.239 2.963C21.046 3.859 21.407 4.993 21.579 6.423C21.75 7.83 21.75 9.635 21.75 11.948V12.052C21.75 14.365 21.75 16.17 21.58 17.577C21.407 19.007 21.046 20.141 20.24 21.037C19.422 21.945 18.373 22.361 17.049 22.559C15.768 22.75 14.131 22.75 12.063 22.75H11.937C9.869 22.75 8.232 22.75 6.951 22.559C5.627 22.361 4.578 21.945 3.761 21.037C2.954 20.141 2.593 19.007 2.421 17.577C2.25 16.17 2.25 14.365 2.25 12.052V11.948C2.25 9.635 2.25 7.83 2.42 6.424C2.593 4.992 2.954 3.859 3.76 2.963C4.578 2.055 5.627 1.639 6.951 1.441C8.232 1.25 9.869 1.25 11.938 1.25ZM7.173 2.925C6.046 3.093 5.376 3.41 4.875 3.966C4.365 4.534 4.065 5.312 3.909 6.604C3.751 7.91 3.75 9.624 3.75 12C3.75 14.376 3.751 16.09 3.91 17.396C4.066 18.688 4.364 19.466 4.875 20.034C5.376 20.59 6.046 20.907 7.173 21.075C8.33 21.248 9.855 21.25 12 21.25C14.145 21.25 15.67 21.248 16.827 21.075C17.954 20.907 18.624 20.59 19.124 20.034C19.636 19.466 19.934 18.688 20.091 17.396C20.249 16.09 20.25 14.376 20.25 12C20.25 9.624 20.249 7.91 20.09 6.604C19.934 5.312 19.636 4.534 19.125 3.966C18.624 3.41 17.954 3.093 16.827 2.925C15.67 2.752 14.145 2.75 12 2.75C9.855 2.75 8.33 2.752 7.173 2.925ZM8.916 5.25H15.084C15.464 5.25 15.794 5.25 16.082 5.327C16.4634 5.42914 16.8112 5.62983 17.0904 5.90892C17.3697 6.18802 17.5706 6.53568 17.673 6.917C17.751 7.207 17.751 7.535 17.75 7.917V8.084C17.75 8.464 17.75 8.794 17.673 9.082C17.5709 9.46338 17.3702 9.81117 17.0911 10.0904C16.812 10.3697 16.4643 10.5706 16.083 10.673C15.793 10.751 15.465 10.751 15.083 10.75H8.917C8.537 10.75 8.207 10.75 7.919 10.673C7.53762 10.5709 7.18983 10.3702 6.91056 10.0911C6.63129 9.81198 6.43038 9.46432 6.328 9.083C6.25 8.793 6.251 8.465 6.251 8.083V7.916C6.251 7.536 6.251 7.206 6.328 6.918C6.43014 6.53662 6.63083 6.18883 6.90992 5.90956C7.18902 5.63029 7.53668 5.42938 7.918 5.327C8.208 5.249 8.536 5.25 8.918 5.25M9 6.75C8.487 6.75 8.377 6.756 8.306 6.776C8.17893 6.8101 8.06307 6.87702 7.97004 6.97004C7.87702 7.06307 7.8101 7.17893 7.776 7.306C7.756 7.377 7.75 7.486 7.75 8C7.75 8.513 7.756 8.623 7.776 8.694C7.8101 8.82107 7.87702 8.93693 7.97004 9.02996C8.06307 9.12298 8.17893 9.1899 8.306 9.224C8.377 9.244 8.486 9.25 9 9.25H15C15.513 9.25 15.623 9.244 15.694 9.224C15.8211 9.1899 15.9369 9.12298 16.03 9.02996C16.123 8.93693 16.1899 8.82107 16.224 8.694C16.244 8.623 16.25 8.514 16.25 8C16.25 7.487 16.244 7.377 16.224 7.306C16.1899 7.17893 16.123 7.06307 16.03 6.97004C15.9369 6.87702 15.8211 6.8101 15.694 6.776C15.623 6.756 15.514 6.75 15 6.75H9Z" fill="black"/>
<path d="M9 13C9 13.2652 8.89464 13.5196 8.70711 13.7071C8.51957 13.8946 8.26522 14 8 14C7.73478 14 7.48043 13.8946 7.29289 13.7071C7.10536 13.5196 7 13.2652 7 13C7 12.7348 7.10536 12.4804 7.29289 12.2929C7.48043 12.1054 7.73478 12 8 12C8.26522 12 8.51957 12.1054 8.70711 12.2929C8.89464 12.4804 9 12.7348 9 13ZM9 17C9 17.2652 8.89464 17.5196 8.70711 17.7071C8.51957 17.8946 8.26522 18 8 18C7.73478 18 7.48043 17.8946 7.29289 17.7071C7.10536 17.5196 7 17.2652 7 17C7 16.7348 7.10536 16.4804 7.29289 16.2929C7.48043 16.1054 7.73478 16 8 16C8.26522 16 8.51957 16.1054 8.70711 16.2929C8.89464 16.4804 9 16.7348 9 17ZM13 13C13 13.2652 12.8946 13.5196 12.7071 13.7071C12.5196 13.8946 12.2652 14 12 14C11.7348 14 11.4804 13.8946 11.2929 13.7071C11.1054 13.5196 11 13.2652 11 13C11 12.7348 11.1054 12.4804 11.2929 12.2929C11.4804 12.1054 11.7348 12 12 12C12.2652 12 12.5196 12.1054 12.7071 12.2929C12.8946 12.4804 13 12.7348 13 13ZM13 17C13 17.2652 12.8946 17.5196 12.7071 17.7071C12.5196 17.8946 12.2652 18 12 18C11.7348 18 11.4804 17.8946 11.2929 17.7071C11.1054 17.5196 11 17.2652 11 17C11 16.7348 11.1054 16.4804 11.2929 16.2929C11.4804 16.1054 11.7348 16 12 16C12.2652 16 12.5196 16.1054 12.7071 16.2929C12.8946 16.4804 13 16.7348 13 17ZM17 13C17 13.2652 16.8946 13.5196 16.7071 13.7071C16.5196 13.8946 16.2652 14 16 14C15.7348 14 15.4804 13.8946 15.2929 13.7071C15.1054 13.5196 15 13.2652 15 13C15 12.7348 15.1054 12.4804 15.2929 12.2929C15.4804 12.1054 15.7348 12 16 12C16.2652 12 16.5196 12.1054 16.7071 12.2929C16.8946 12.4804 17 12.7348 17 13ZM17 17C17 17.2652 16.8946 17.5196 16.7071 17.7071C16.5196 17.8946 16.2652 18 16 18C15.7348 18 15.4804 17.8946 15.2929 17.7071C15.1054 17.5196 15 17.2652 15 17C15 16.7348 15.1054 16.4804 15.2929 16.2929C15.4804 16.1054 15.7348 16 16 16C16.2652 16 16.5196 16.1054 16.7071 16.2929C16.8946 16.4804 17 16.7348 17 17Z" fill="black"/>
</svg>
