<svg width="24" height="24" viewBox="0 0 24 24" fill="none" xmlns="http://www.w3.org/2000/svg">
<path d="M1 9.71429H22M5.66667 15.4286H5.67833M10.3333 15.4286H12.6667M1 7.42857C1 6.51926 1.36875 5.64719 2.02513 5.00421C2.6815 4.36122 3.57174 4 4.5 4H18.5C19.4283 4 20.3185 4.36122 20.9749 5.00421C21.6313 5.64719 22 6.51926 22 7.42857V16.5714C22 17.4807 21.6313 18.3528 20.9749 18.9958C20.3185 19.6388 19.4283 20 18.5 20H4.5C3.57174 20 2.6815 19.6388 2.02513 18.9958C1.36875 18.3528 1 17.4807 1 16.5714V7.42857Z" stroke="black" stroke-width="2" stroke-linecap="round" stroke-linejoin="round"/>
</svg>
