<svg width="24" height="24" viewBox="0 0 24 24" fill="none" xmlns="http://www.w3.org/2000/svg">
<path d="M12 9.5C17.5228 9.5 22 8.15685 22 6.5C22 4.84315 17.5228 3.5 12 3.5C6.47715 3.5 2 4.84315 2 6.5C2 8.15685 6.47715 9.5 12 9.5Z" stroke="#4A5468" stroke-width="1.5"/>
<path d="M12 20.5C12.7789 20.5056 13.5417 20.2778 14.19 19.846C14.3339 19.7446 14.4363 19.5947 14.4783 19.4238C14.5204 19.2529 14.4993 19.0726 14.419 18.916C14.073 18.258 13.33 17.5 12 17.5C10.67 17.5 9.927 18.26 9.581 18.915C9.50066 19.0716 9.47958 19.2519 9.52166 19.4228C9.56374 19.5937 9.66614 19.7436 9.81 19.845C10.41 20.255 11.172 20.5 12 20.5Z" stroke="#4A5468" stroke-width="1.5" stroke-linejoin="round"/>
<path d="M12 17.5V9.5" stroke="#4A5468" stroke-width="1.5" stroke-linecap="round" stroke-linejoin="round"/>
</svg>
