<svg width="24" height="24" viewBox="0 0 24 24" fill="none" xmlns="http://www.w3.org/2000/svg">
<g clip-path="url(#clip0_1_1583)">
<path d="M18.9969 16.8922C20.2115 16.6455 21.2911 15.9564 22.0261 14.9586C22.7612 13.9608 23.0992 12.7254 22.9747 11.4923C22.8501 10.2593 22.2719 9.11647 21.3521 8.28578C20.4324 7.4551 19.2368 6.9958 17.9974 6.99704H16.738C16.4069 5.71499 15.7626 4.53524 14.8629 3.56372C13.9632 2.59219 12.8363 1.8593 11.5834 1.43085C10.3305 1.00239 8.99083 0.89178 7.68464 1.10895C6.37844 1.32612 5.14662 1.86427 4.09977 2.67508C3.05292 3.48589 2.22382 4.54399 1.68689 5.75437C1.14996 6.96474 0.922022 8.28952 1.02353 9.60975C1.12505 10.93 1.55284 12.2043 2.26849 13.3184C2.98415 14.4325 3.96527 15.3514 5.12376 15.9926" stroke="#1F2223" stroke-width="2" stroke-linecap="round" stroke-linejoin="round"/>
<path d="M13 11L9 17H15L11 23" stroke="#1F2223" stroke-width="2" stroke-linecap="round" stroke-linejoin="round"/>
</g>
<defs>
<clipPath id="clip0_1_1583">
<rect width="24" height="24" fill="white"/>
</clipPath>
</defs>
</svg>
