<svg width="24" height="24" viewBox="0 0 24 24" fill="none" xmlns="http://www.w3.org/2000/svg">
<g clip-path="url(#clip0_1_1585)">
<path d="M22.6065 16.8711C22.9267 16.1151 23.0546 15.2914 22.9787 14.4739C22.9029 13.6563 22.6256 12.8703 22.1718 12.186C21.7179 11.5018 21.1016 10.9407 20.3779 10.5528C19.6542 10.165 18.8456 9.96248 18.0246 9.96345H16.7722C16.3665 8.36573 15.4743 6.9336 14.2189 5.86523C12.9636 4.79685 11.4072 4.14504 9.76518 4M5.10375 4.99391C3.55134 5.85229 2.33055 7.20514 1.63559 8.83726C0.940629 10.4694 0.811406 12.287 1.26848 14.001C1.72555 15.7151 2.74267 17.227 4.15803 18.2964C5.57339 19.3658 7.30569 19.9311 9.07938 19.9025H18.0246C18.6008 19.9019 19.1725 19.801 19.7142 19.6044" stroke="#1F2223" stroke-width="2" stroke-linecap="round" stroke-linejoin="round"/>
<path d="M1 1L23 23" stroke="#1F2223" stroke-width="2" stroke-linecap="round" stroke-linejoin="round"/>
</g>
<defs>
<clipPath id="clip0_1_1585">
<rect width="24" height="24" fill="white"/>
</clipPath>
</defs>
</svg>
