<svg width="24" height="24" viewBox="0 0 24 24" fill="none" xmlns="http://www.w3.org/2000/svg">
<path d="M20.0059 17.58C21.0571 17.1195 21.918 16.3115 22.444 15.2915C22.97 14.2715 23.129 13.1016 22.8945 11.9781C22.66 10.8547 22.0461 9.84617 21.1559 9.12179C20.2658 8.39742 19.1535 8.00131 18.0059 7.99996H16.7459C16.4289 6.77248 15.8247 5.63791 14.9832 4.68976C14.1417 3.74161 13.0868 3.00703 11.9057 2.54658C10.7245 2.08612 9.4508 1.91297 8.18957 2.0414C6.92835 2.16983 5.7157 2.59615 4.65159 3.28524C3.58747 3.97433 2.70236 4.90644 2.0692 6.00475C1.43604 7.10307 1.07296 8.33613 1.0099 9.60231C0.946844 10.8685 1.1856 12.1315 1.7065 13.2873C2.22739 14.4431 3.01551 15.4585 4.00589 16.25" stroke="#1F2223" stroke-width="2" stroke-linecap="round" stroke-linejoin="round"/>
<path d="M8 16H8.01" stroke="#1F2223" stroke-width="2" stroke-linecap="round" stroke-linejoin="round"/>
<path d="M8 20H8.01" stroke="#1F2223" stroke-width="2" stroke-linecap="round" stroke-linejoin="round"/>
<path d="M12 18H12.01" stroke="#1F2223" stroke-width="2" stroke-linecap="round" stroke-linejoin="round"/>
<path d="M12 22H12.01" stroke="#1F2223" stroke-width="2" stroke-linecap="round" stroke-linejoin="round"/>
<path d="M16 16H16.01" stroke="#1F2223" stroke-width="2" stroke-linecap="round" stroke-linejoin="round"/>
<path d="M16 20H16.01" stroke="#1F2223" stroke-width="2" stroke-linecap="round" stroke-linejoin="round"/>
</svg>
