<svg width="24" height="24" viewBox="0 0 24 24" fill="none" xmlns="http://www.w3.org/2000/svg">
<g clip-path="url(#clip0_1_1591)">
<path d="M16.7401 10H18.0001C19.3262 10 20.598 10.5268 21.5356 11.4645C22.4733 12.4021 23.0001 13.6739 23.0001 15C23.0001 16.3261 22.4733 17.5979 21.5356 18.5355C20.598 19.4732 19.3262 20 18.0001 20H9.00011C7.50359 20.0011 6.03676 19.5824 4.76629 18.7916C3.49583 18.0007 2.47267 16.8693 1.81309 15.526C1.1535 14.1826 0.883935 12.6812 1.03502 11.1924C1.1861 9.70348 1.75177 8.28683 2.66776 7.10338C3.58375 5.91993 4.81332 5.01714 6.21676 4.49759C7.6202 3.97804 9.14124 3.86256 10.607 4.16428C12.0728 4.46599 13.4246 5.1728 14.5088 6.2044C15.5929 7.23599 16.366 8.551 16.7401 10Z" stroke="#1F2223" stroke-width="2" stroke-linecap="round" stroke-linejoin="round"/>
</g>
<defs>
<clipPath id="clip0_1_1591">
<rect width="24" height="24" fill="white"/>
</clipPath>
</defs>
</svg>
