<svg width="24" height="24" viewBox="0 0 24 24" fill="none" xmlns="http://www.w3.org/2000/svg">
<g clip-path="url(#clip0_28_1836)">
<path d="M3.75 0C3.94892 0 4.13968 0.0790176 4.28033 0.21967C4.42099 0.360322 4.5 0.551088 4.5 0.75C4.5 1.455 4.911 1.809 5.7 2.4L5.76 2.445C6.471 2.9775 7.5 3.747 7.5 5.25C7.5 5.44891 7.42099 5.63968 7.28033 5.78033C7.13968 5.92098 6.94892 6 6.75 6C6.55109 6 6.36033 5.92098 6.21967 5.78033C6.07902 5.63968 6 5.44891 6 5.25C6 4.545 5.589 4.191 4.8 3.6L4.74 3.555C4.029 3.0225 3 2.253 3 0.75C3 0.551088 3.07902 0.360322 3.21967 0.21967C3.36033 0.0790176 3.55109 0 3.75 0ZM8.25 0C8.44892 0 8.63968 0.0790176 8.78033 0.21967C8.92099 0.360322 9 0.551088 9 0.75C9 1.455 9.411 1.809 10.2 2.4L10.26 2.445C10.971 2.9775 12 3.747 12 5.25C12 5.44891 11.921 5.63968 11.7803 5.78033C11.6397 5.92098 11.4489 6 11.25 6C11.0511 6 10.8603 5.92098 10.7197 5.78033C10.579 5.63968 10.5 5.44891 10.5 5.25C10.5 4.545 10.089 4.191 9.3 3.6L9.24 3.555C8.529 3.0225 7.5 2.253 7.5 0.75C7.5 0.551088 7.57902 0.360322 7.71967 0.21967C7.86033 0.0790176 8.05109 0 8.25 0ZM13.5 0.75C13.5 0.551088 13.421 0.360322 13.2803 0.21967C13.1397 0.0790176 12.9489 0 12.75 0C12.5511 0 12.3603 0.0790176 12.2197 0.21967C12.079 0.360322 12 0.551088 12 0.75C12 2.253 13.029 3.0225 13.74 3.555L13.8 3.6C14.589 4.191 15 4.545 15 5.25C15 5.44891 15.079 5.63968 15.2197 5.78033C15.3603 5.92098 15.5511 6 15.75 6C15.9489 6 16.1397 5.92098 16.2803 5.78033C16.421 5.63968 16.5 5.44891 16.5 5.25C16.5 3.747 15.471 2.9775 14.76 2.445L14.7 2.4C13.911 1.809 13.5 1.455 13.5 0.75ZM19.5 9H20.25C21.2446 9 22.1984 9.39509 22.9017 10.0983C23.6049 10.8016 24 11.7554 24 12.75C24 13.7446 23.6049 14.6984 22.9017 15.4017C22.1984 16.1049 21.2446 16.5 20.25 16.5H19.1895C18.648 18.4177 17.4307 20.0745 15.7625 21.1645C14.0943 22.2544 12.088 22.7037 10.1143 22.4294C8.14064 22.1551 6.33292 21.1757 5.02518 19.6722C3.71745 18.1687 2.99808 16.2427 3 14.25V8.8365C3 8.1 3.5985 7.5 4.3365 7.5H18.1635C18.9015 7.5 19.5 8.0985 19.5 8.8365V9ZM4.5 9V14.25C4.5 16.0402 5.21116 17.7571 6.47703 19.023C7.7429 20.2888 9.45979 21 11.25 21C13.0402 21 14.7571 20.2888 16.023 19.023C17.2888 17.7571 18 16.0402 18 14.25V9H4.5ZM19.5 10.5V14.25C19.5 14.503 19.489 14.753 19.467 15H20.25C20.8467 15 21.419 14.7629 21.841 14.341C22.263 13.919 22.5 13.3467 22.5 12.75C22.5 12.1533 22.263 11.581 21.841 11.159C21.419 10.7371 20.8467 10.5 20.25 10.5H19.5Z" fill="black"/>
</g>
<defs>
<clipPath id="clip0_28_1836">
<rect width="24" height="24" fill="white"/>
</clipPath>
</defs>
</svg>
