<svg width="24" height="24" viewBox="0 0 24 24" fill="none" xmlns="http://www.w3.org/2000/svg">
<path d="M19.2794 4.5H19.6139C19.7917 4.49973 19.9638 4.56262 20.0995 4.67746C20.2352 4.7923 20.3258 4.95162 20.3549 5.127L20.8544 8.127C20.8723 8.2344 20.8665 8.34439 20.8376 8.44935C20.8086 8.5543 20.7572 8.65169 20.6868 8.73477C20.6165 8.81784 20.5289 8.88459 20.4301 8.9304C20.3313 8.9762 20.2238 8.99995 20.1149 9H18.9584L18.0434 21.804C18.0298 21.9932 17.945 22.1701 17.8061 22.2992C17.6672 22.4284 17.4845 22.5001 17.2949 22.5H6.69891C6.50901 22.5005 6.32599 22.4289 6.18679 22.2998C6.04759 22.1706 5.96258 21.9934 5.94891 21.804L5.03691 9H3.88491C3.77604 8.99995 3.66849 8.9762 3.56972 8.9304C3.47095 8.88459 3.38334 8.81784 3.31298 8.73477C3.24261 8.65169 3.19117 8.5543 3.16223 8.44935C3.13329 8.34439 3.12755 8.2344 3.14541 8.127L3.64491 5.127C3.67407 4.95162 3.76458 4.7923 3.9003 4.67746C4.03602 4.56262 4.20812 4.49973 4.38591 4.5H4.71441L4.55691 2.304C4.54949 2.20119 4.56334 2.09795 4.5976 2.00073C4.63186 1.90351 4.68579 1.8144 4.75602 1.73896C4.82626 1.66351 4.9113 1.60335 5.00582 1.56224C5.10035 1.52113 5.20233 1.49994 5.30541 1.5H18.6884C18.7915 1.49994 18.8935 1.52113 18.988 1.56224C19.0825 1.60335 19.1676 1.66351 19.2378 1.73896C19.308 1.8144 19.362 1.90351 19.3962 2.00073C19.4305 2.09795 19.4443 2.20119 19.4369 2.304L19.2794 4.5ZM17.7764 4.5L17.8829 3H6.11091L6.21741 4.5H17.7764ZM4.92891 7.5H19.2299L18.9794 6H5.02041L4.76991 7.5H4.92891ZM6.53991 9L7.39641 21H16.5974L17.4539 9H6.53991Z" fill="black"/>
</svg>
