<svg width="24" height="24" viewBox="0 0 24 24" fill="none" xmlns="http://www.w3.org/2000/svg">
<path d="M5.19314 24C4.56795 24 4.04636 23.7947 3.62836 23.384C3.21036 22.9733 3.0009 22.4609 3 21.8467V2.15333C3 1.54 3.20945 1.028 3.62836 0.617333C4.04726 0.206667 4.56886 0.000888889 5.19314 0H22V1.33333H18.6071V2.872C18.6071 3.16267 18.5072 3.40622 18.3072 3.60267C18.1073 3.79911 17.8594 3.89733 17.5635 3.89733H8.79364C8.49779 3.89733 8.24988 3.79911 8.04993 3.60267C7.84998 3.40622 7.75 3.16267 7.75 2.872V1.33333H5.19179C4.9484 1.33333 4.74845 1.41022 4.59193 1.564C4.4354 1.71778 4.35714 1.91467 4.35714 2.15467V21.8467C4.35714 22.0858 4.4354 22.2822 4.59193 22.436C4.74845 22.5898 4.9484 22.6667 5.19179 22.6667H10.4792C9.67217 22.1867 9.01531 21.5667 8.50864 20.8067C8.00198 20.0467 7.74909 19.128 7.75 18.0507V12.7173H18.6071V18.0507C18.6071 19.128 18.3538 20.0467 17.8471 20.8067C17.3405 21.5658 16.6841 22.1858 15.8779 22.6667H22V24H5.19314ZM13.1786 22.0507C14.3095 22.0507 15.2708 21.6618 16.0625 20.884C16.8542 20.1062 17.25 19.1618 17.25 18.0507V14.0507H9.10714V18.0507C9.10714 19.1618 9.50298 20.1062 10.2946 20.884C11.0863 21.6618 12.0476 22.0507 13.1786 22.0507ZM13.1786 9.33333C13.459 9.33333 13.7033 9.23111 13.9114 9.02667C14.1195 8.82222 14.2236 8.58222 14.2236 8.30667C14.2236 8.03111 14.1195 7.79156 13.9114 7.588C13.7033 7.38444 13.459 7.28222 13.1786 7.28133C12.8981 7.28045 12.6538 7.38267 12.4457 7.588C12.2376 7.79333 12.1336 8.03333 12.1336 8.308C12.1336 8.58267 12.2376 8.82267 12.4457 9.028C12.6538 9.23333 12.8981 9.33511 13.1786 9.33333Z" fill="black"/>
</svg>
