<svg width="24" height="24" viewBox="0 0 24 24" fill="none" xmlns="http://www.w3.org/2000/svg">
<path d="M3.795 13.611L4.4955 14.991C4.0155 15.4635 3.75 15.978 3.75 16.5C3.75 18.429 7.3905 20.25 12 20.25C16.6095 20.25 20.25 18.429 20.25 16.5C20.25 15.978 19.983 15.465 19.5045 14.9925L20.2185 13.623C21.186 14.433 21.75 15.414 21.75 16.5C21.75 19.5405 17.331 21.75 12 21.75C6.669 21.75 2.25 19.5405 2.25 16.5C2.25 15.408 2.82 14.424 3.795 13.611Z" fill="black"/>
<path d="M3.795 9.11096L4.4955 10.491C4.0155 10.965 3.75 11.4795 3.75 12C3.75 13.929 7.3905 15.75 12 15.75C16.6095 15.75 20.25 13.929 20.25 12C20.25 11.478 19.983 10.965 19.5045 10.4925L20.2185 9.12296C21.186 9.93296 21.75 10.914 21.75 12C21.75 15.0405 17.331 17.25 12 17.25C6.669 17.25 2.25 15.0405 2.25 12C2.25 10.908 2.82 9.92396 3.795 9.11096Z" fill="black"/>
<path d="M12 12.75C6.669 12.75 2.25 10.5405 2.25 7.5C2.25 4.4595 6.669 2.25 12 2.25C17.331 2.25 21.75 4.4595 21.75 7.5C21.75 10.5405 17.331 12.75 12 12.75ZM12 11.25C16.6095 11.25 20.25 9.429 20.25 7.5C20.25 5.571 16.6095 3.75 12 3.75C7.3905 3.75 3.75 5.571 3.75 7.5C3.75 9.429 7.3905 11.25 12 11.25Z" fill="black"/>
</svg>
