<svg width="24" height="24" viewBox="0 0 24 24" fill="none" xmlns="http://www.w3.org/2000/svg">
<path d="M11 5.07C9.50411 5.28638 8.11833 5.9808 7.04956 7.04956C5.9808 8.11833 5.28638 9.50411 5.07 11H7V13H5.07C5.28561 14.4962 5.97978 15.8824 7.04868 16.9513C8.11759 18.0202 9.50379 18.7144 11 18.93V17H13V18.93C14.4962 18.7144 15.8824 18.0202 16.9513 16.9513C18.0202 15.8824 18.7144 14.4962 18.93 13H17V11H18.93C18.7144 9.50379 18.0202 8.11759 16.9513 7.04868C15.8824 5.97978 14.4962 5.28561 13 5.07V7H11V5.07ZM3.055 11C3.28241 8.97114 4.19257 7.07978 5.63618 5.63618C7.07978 4.19257 8.97114 3.28241 11 3.055V1H13V3.055C15.0289 3.28241 16.9202 4.19257 18.3638 5.63618C19.8074 7.07978 20.7176 8.97114 20.945 11H23V13H20.945C20.7176 15.0289 19.8074 16.9202 18.3638 18.3638C16.9202 19.8074 15.0289 20.7176 13 20.945V23H11V20.945C8.97114 20.7176 7.07978 19.8074 5.63618 18.3638C4.19257 16.9202 3.28241 15.0289 3.055 13H1V11H3.055ZM14 12C14 12.5304 13.7893 13.0391 13.4142 13.4142C13.0391 13.7893 12.5304 14 12 14C11.4696 14 10.9609 13.7893 10.5858 13.4142C10.2107 13.0391 10 12.5304 10 12C10 11.4696 10.2107 10.9609 10.5858 10.5858C10.9609 10.2107 11.4696 10 12 10C12.5304 10 13.0391 10.2107 13.4142 10.5858C13.7893 10.9609 14 11.4696 14 12Z" fill="black"/>
</svg>
