<svg width="24" height="24" viewBox="0 0 24 24" fill="none" xmlns="http://www.w3.org/2000/svg">
<path d="M10.876 23V13.124M10.876 23L2.16043 17.5522C1.59256 17.1979 1.30862 17.0213 1.15431 16.7423C1 16.4633 1 16.1275 1 15.4572V6.95152M10.876 23L15.814 19.9138L19.5915 17.5522C20.1594 17.1979 20.4434 17.0213 20.5977 16.7423C20.752 16.4633 20.752 16.1275 20.752 15.4584V6.95152M10.876 13.124L1 6.95152M10.876 13.124L20.752 6.95152M1 6.95152L9.56742 1.5975C10.2044 1.19875 10.5217 1 10.876 1C11.2303 1 11.5476 1.19875 12.1846 1.5975L20.752 6.95152" stroke="black" stroke-width="1.5" stroke-linejoin="round"/>
<path d="M14.5795 14.9758C14.5795 15.3032 14.7095 15.6172 14.941 15.8488C15.1726 16.0803 15.4866 16.2103 15.814 16.2103C16.1414 16.2103 16.4554 16.0803 16.6869 15.8488C16.9184 15.6172 17.0485 15.3032 17.0485 14.9758H14.5795ZM5.28369 4.91097L13.9993 10.3588L15.3078 8.2651L6.59226 2.81726L5.28369 4.91097ZM17.0485 14.9758V11.4057H14.5795V14.9758H17.0485ZM13.9993 10.3588C14.3029 10.5489 14.456 10.6465 14.5597 10.7255C14.6424 10.7897 14.6128 10.7822 14.5795 10.7218L16.7398 9.52429C16.569 9.22734 16.3382 8.96921 16.0621 8.76631C15.8436 8.59842 15.572 8.42929 15.3078 8.2651L13.9993 10.3588ZM17.0485 11.4057C17.0485 11.0946 17.0497 10.7761 17.0238 10.5008C16.9977 10.1595 16.8998 9.82742 16.7386 9.52553L14.5795 10.723C14.5461 10.6613 14.5548 10.6329 14.5659 10.7353C14.5782 10.8662 14.5795 11.0489 14.5795 11.4057H17.0485Z" fill="black"/>
</svg>
