<svg width="24" height="24" viewBox="0 0 24 24" fill="none" xmlns="http://www.w3.org/2000/svg">
<path fill-rule="evenodd" clip-rule="evenodd" d="M7.263 3.26C7.32222 2.70801 7.58341 2.1974 7.99636 1.82636C8.4093 1.45532 8.94485 1.25004 9.5 1.25H14.5C15.0552 1.25004 15.5907 1.45532 16.0036 1.82636C16.4166 2.1974 16.6778 2.70801 16.737 3.26C17.501 3.276 18.16 3.315 18.724 3.419C19.482 3.559 20.127 3.823 20.652 4.349C21.254 4.95 21.512 5.709 21.634 6.609C21.75 7.475 21.75 8.578 21.75 9.945V16.055C21.75 17.422 21.75 18.525 21.634 19.392C21.512 20.292 21.254 21.05 20.652 21.652C20.05 22.254 19.292 22.512 18.392 22.634C17.525 22.75 16.422 22.75 15.055 22.75H8.945C7.578 22.75 6.475 22.75 5.608 22.634C4.708 22.512 3.95 22.254 3.348 21.652C2.746 21.05 2.488 20.292 2.367 19.392C2.25 18.525 2.25 17.422 2.25 16.055V9.945C2.25 8.578 2.25 7.475 2.367 6.608C2.487 5.708 2.747 4.95 3.348 4.348C3.873 3.823 4.518 3.558 5.276 3.419C5.84 3.315 6.5 3.276 7.263 3.26ZM7.265 4.76C6.547 4.776 5.993 4.812 5.547 4.894C4.981 4.998 4.652 5.166 4.409 5.409C4.132 5.686 3.952 6.074 3.853 6.809C3.752 7.563 3.75 8.565 3.75 10V16C3.75 17.435 3.752 18.436 3.853 19.192C3.952 19.926 4.133 20.314 4.409 20.591C4.686 20.868 5.074 21.048 5.809 21.147C6.563 21.248 7.565 21.25 9 21.25H15C16.435 21.25 17.436 21.248 18.192 21.147C18.926 21.048 19.314 20.867 19.591 20.591C19.868 20.314 20.048 19.926 20.147 19.191C20.248 18.436 20.25 17.435 20.25 16V10C20.25 8.565 20.248 7.563 20.147 6.808C20.048 6.074 19.867 5.686 19.591 5.409C19.347 5.166 19.019 4.999 18.453 4.894C18.007 4.812 17.453 4.776 16.735 4.761C16.671 5.30885 16.408 5.81411 15.996 6.1808C15.584 6.54749 15.0516 6.75005 14.5 6.75H9.5C8.94827 6.75002 8.41577 6.54732 8.00371 6.18043C7.59165 5.81354 7.32875 5.30803 7.265 4.76ZM9.5 2.75C9.30109 2.75 9.11032 2.82902 8.96967 2.96967C8.82902 3.11032 8.75 3.30109 8.75 3.5V4.5C8.75 4.914 9.086 5.25 9.5 5.25H14.5C14.6989 5.25 14.8897 5.17098 15.0303 5.03033C15.171 4.88968 15.25 4.69891 15.25 4.5V3.5C15.25 3.30109 15.171 3.11032 15.0303 2.96967C14.8897 2.82902 14.6989 2.75 14.5 2.75H9.5ZM6.25 10.5C6.25 10.3011 6.32902 10.1103 6.46967 9.96967C6.61032 9.82902 6.80109 9.75 7 9.75H17C17.1989 9.75 17.3897 9.82902 17.5303 9.96967C17.671 10.1103 17.75 10.3011 17.75 10.5C17.75 10.6989 17.671 10.8897 17.5303 11.0303C17.3897 11.171 17.1989 11.25 17 11.25H7C6.80109 11.25 6.61032 11.171 6.46967 11.0303C6.32902 10.8897 6.25 10.6989 6.25 10.5ZM7.25 14C7.25 13.8011 7.32902 13.6103 7.46967 13.4697C7.61032 13.329 7.80109 13.25 8 13.25H16C16.1989 13.25 16.3897 13.329 16.5303 13.4697C16.671 13.6103 16.75 13.8011 16.75 14C16.75 14.1989 16.671 14.3897 16.5303 14.5303C16.3897 14.671 16.1989 14.75 16 14.75H8C7.80109 14.75 7.61032 14.671 7.46967 14.5303C7.32902 14.3897 7.25 14.1989 7.25 14ZM8.25 17.5C8.25 17.3011 8.32902 17.1103 8.46967 16.9697C8.61032 16.829 8.80109 16.75 9 16.75H15C15.1989 16.75 15.3897 16.829 15.5303 16.9697C15.671 17.1103 15.75 17.3011 15.75 17.5C15.75 17.6989 15.671 17.8897 15.5303 18.0303C15.3897 18.171 15.1989 18.25 15 18.25H9C8.80109 18.25 8.61032 18.171 8.46967 18.0303C8.32902 17.8897 8.25 17.6989 8.25 17.5Z" fill="black"/>
</svg>
