<svg width="20" height="20" viewBox="0 0 20 20" fill="none" xmlns="http://www.w3.org/2000/svg">
<g clip-path="url(#clip0_2554_911)">
<path d="M16.7 7.25828V3.33328H12.7833L9.99995 0.574951L7.25828 3.33328H3.33328V7.25828L0.574951 9.99995L3.33328 12.7833V16.7H7.25828L9.99995 19.4583L12.7833 16.7H16.7V12.7833L19.4583 9.99995L16.7 7.25828ZM7.35828 5.87495C8.17495 5.87495 8.83329 6.53328 8.83329 7.35828C8.83329 7.74948 8.67788 8.12465 8.40127 8.40127C8.12465 8.67788 7.74948 8.83329 7.35828 8.83329C6.53328 8.83329 5.87495 8.17495 5.87495 7.35828C5.87495 6.53328 6.53328 5.87495 7.35828 5.87495ZM12.6833 14.1666C11.8666 14.1666 11.2083 13.5 11.2083 12.6833C11.2083 12.2921 11.3637 11.9169 11.6403 11.6403C11.9169 11.3637 12.2921 11.2083 12.6833 11.2083C13.5 11.2083 14.1666 11.8666 14.1666 12.6833C14.1666 13.0767 14.0103 13.454 13.7322 13.7322C13.454 14.0103 13.0767 14.1666 12.6833 14.1666ZM7.08328 14.1916L5.83328 12.9416L12.9416 5.83328L14.1916 7.08328L7.08328 14.1916Z" fill="#956A40"/>
</g>
<defs>
<clipPath id="clip0_2554_911">
<rect width="20" height="20" fill="white"/>
</clipPath>
</defs>
</svg>
