<svg width="24" height="24" viewBox="0 0 24 24" fill="none" xmlns="http://www.w3.org/2000/svg">
<path d="M4 22V21C4 19.13 4 18.196 4.402 17.5C4.66529 17.044 5.04398 16.6653 5.5 16.402C6.196 16 7.13 16 9 16L12 20L15 16C16.87 16 17.804 16 18.5 16.402C18.956 16.6653 19.3347 17.044 19.598 17.5C20 18.196 20 19.13 20 21V22M15.937 8L16.955 3.864C17.188 2.917 16.483 2 15.523 2H8.477C7.517 2 6.812 2.917 7.045 3.864L8.063 8M15.937 8V10C15.937 12.209 14.175 14 12 14C9.825 14 8.063 12.209 8.063 10V8M15.937 8H8.063M12 4V6M13 5H11" stroke="black" stroke-width="1.5" stroke-linecap="round" stroke-linejoin="round"/>
</svg>
