<svg width="24" height="24" viewBox="0 0 24 24" fill="none" xmlns="http://www.w3.org/2000/svg">
<path d="M16.0843 8.02729C15.9843 7.74446 15.7991 7.49957 15.5542 7.3263C15.3094 7.15302 15.0168 7.05988 14.7168 7.05968H13.5927C13.2745 7.06137 12.9681 7.18016 12.7319 7.39337C12.4957 7.60658 12.3463 7.89929 12.3122 8.21564C12.278 8.53199 12.3616 8.84984 12.5468 9.10852C12.7321 9.36721 13.0061 9.54862 13.3166 9.61814L15.027 9.99238C15.3761 10.0695 15.6844 10.2726 15.8929 10.5629C16.1014 10.8533 16.1955 11.2103 16.157 11.5657C16.1186 11.921 15.9504 12.2497 15.6846 12.4888C15.4189 12.7278 15.0743 12.8604 14.7168 12.861H13.7492C13.4492 12.8608 13.1567 12.7677 12.9118 12.5944C12.6669 12.4212 12.4818 12.1763 12.3818 11.8934M14.233 7.05968V5.60828M14.233 14.311V12.8596" stroke="black" stroke-width="1.2" stroke-linecap="round" stroke-linejoin="round"/>
<path d="M3.84282 10.7223C3.13967 12.0178 2.86604 13.503 3.06139 14.964C3.25674 16.4249 3.91098 17.7861 4.92978 18.8513C5.94858 19.9165 7.27932 20.6306 8.73014 20.8908C10.181 21.1509 11.6769 20.9436 13.0023 20.2988M7.27355 9.95964C7.27355 11.8055 8.0068 13.5757 9.31198 14.8809C10.6172 16.186 12.3874 16.9193 14.2332 16.9193C16.079 16.9193 17.8492 16.186 19.1544 14.8809C20.4596 13.5757 21.1928 11.8055 21.1928 9.95964C21.1928 8.11383 20.4596 6.34362 19.1544 5.03843C17.8492 3.73325 16.079 3 14.2332 3C12.3874 3 10.6172 3.73325 9.31198 5.03843C8.0068 6.34362 7.27355 8.11383 7.27355 9.95964Z" stroke="black" stroke-width="1.2" stroke-linecap="round" stroke-linejoin="round"/>
</svg>
