<svg width="24" height="24" viewBox="0 0 24 24" fill="none" xmlns="http://www.w3.org/2000/svg">
<path d="M8 17L12 21L16 17" stroke="#1F2223" stroke-width="2" stroke-linecap="round" stroke-linejoin="round"/>
<path d="M12 12V21" stroke="#1F2223" stroke-width="2" stroke-linecap="round" stroke-linejoin="round"/>
<path d="M20.8773 18.0928C21.7462 17.4818 22.3978 16.6098 22.7375 15.6034C23.0773 14.597 23.0874 13.5085 22.7666 12.4959C22.4458 11.4833 21.8107 10.5993 20.9534 9.97213C20.0961 9.34497 19.0612 9.0073 17.999 9.00814H16.7398C16.4392 7.83669 15.8767 6.74871 15.0948 5.82608C14.3129 4.90345 13.3319 4.17023 12.2256 3.68161C11.1193 3.19299 9.91659 2.9617 8.70798 3.00517C7.49937 3.04863 6.31637 3.36571 5.24803 3.93253C4.1797 4.49936 3.25387 5.30115 2.54025 6.27756C1.82663 7.25397 1.34382 8.37955 1.12815 9.56956C0.912487 10.7596 0.969594 11.983 1.29517 13.1477C1.62075 14.3125 2.20632 15.3882 3.00779 16.2939" stroke="#1F2223" stroke-width="2" stroke-linecap="round" stroke-linejoin="round"/>
</svg>
