<svg width="188" height="200" viewBox="0 0 188 200" fill="none" xmlns="http://www.w3.org/2000/svg">
<path d="M147.724 169.114C147.641 171.537 146.344 173.538 144.819 173.538C143.923 173.538 143.105 172.848 142.567 171.787C142.252 171.943 141.935 172.1 141.613 172.257C142.326 173.678 143.486 174.586 144.819 174.586C146.393 174.586 147.742 174.497 149.03 173.277C150.489 171.897 150.993 169.569 150.689 167.469C149.752 168.001 148.764 168.552 147.724 169.115V169.114Z" fill="#1A202C"/>
<path d="M55.0335 165.694C53.5885 164.115 50.5896 164.528 49.8875 164.952C46.0097 166.391 46.242 174.622 50.237 175.543C51.4884 175.832 53.5571 175.591 54.8462 174.372C57.0864 172.252 56.9514 167.791 55.0335 165.694ZM48.1464 170.194C48.1464 167.824 49.3884 165.823 50.8575 165.823C52.3266 165.823 53.5686 167.825 53.5686 170.194C53.5686 172.563 52.3266 174.567 50.8575 174.567C49.3884 174.567 48.1464 172.564 48.1464 170.194Z" fill="#1A202C"/>
<path d="M95.8024 188.828C94.4767 187.379 92.8015 187.523 91.324 187.651C88.3953 187.908 86.8959 190.964 86.8959 193.904C86.8959 197.266 88.7835 200.001 91.1022 200.001C92.8308 200.001 94.2308 199.896 95.5942 198.607C98.0939 196.242 97.9788 191.207 95.8024 188.828ZM87.9412 193.904C87.9412 191.166 89.3883 188.853 91.1011 188.853C92.814 188.853 94.2611 191.166 94.2611 193.904C94.2611 196.642 92.814 198.955 91.1011 198.955C89.3883 198.955 87.9412 196.642 87.9412 193.904Z" fill="#1A202C"/>
<path d="M187.716 105.788C159.714 91.4986 130.92 81.0939 102.237 74.6465C98.1735 70.0185 93.2389 64.5086 89.1152 59.9843C84.4673 54.8855 80.4703 50.3151 75.7638 47.7192C75.6738 46.0901 74.5427 44.8951 72.6185 44.4159C70.8522 43.9775 69.0368 44.3531 67.4349 44.6869C59.5015 46.3349 10.8378 56.3514 3.21101 59.4046C1.64463 60.0313 0.74058 60.565 0.29902 62.146C-0.269158 64.1874 -0.166615 67.7396 1.84239 69.2464C2.83014 69.9882 4.16947 69.8469 5.25453 69.2296C6.44004 68.8896 7.99596 68.4585 9.84696 67.9541C11.5944 69.6461 10.7165 68.7002 31.8967 92.3127C32.0683 110.756 35.7566 131.618 42.6594 148.079C42.7159 148.216 42.6594 148.169 44.5041 149.769C45.0639 152.249 45.7577 155.905 47.572 161.157C48.5535 163.996 51.0396 165.564 53.4431 167.084C65.7429 174.863 78.0312 181.93 90.5759 188.385C90.7486 188.348 90.9244 188.328 91.1033 188.328C92.1308 188.328 93.06 188.965 93.7275 189.992C94.708 190.486 95.6894 190.977 96.672 191.465C98.7186 192.479 101.008 193.566 103.338 193.566C111.804 193.566 143.203 178.723 149.402 175.483C151.207 174.539 155.202 172.927 155.963 170.876C156.661 169 154.83 167.709 153.12 166.694C156.499 164.747 159.794 162.683 162.998 160.507C163.616 160.084 178.913 133.794 187.973 106.417C188.056 106.168 187.941 105.902 187.715 105.786L187.716 105.788ZM5.93884 67.1181C5.32464 68.2973 3.5155 69.194 2.4702 68.4093C1.02414 67.3242 0.74058 64.4594 1.30665 62.4274C1.59335 61.401 2.26406 60.7209 3.34704 60.7209C4.14645 60.7209 4.90819 61.1185 5.29011 61.5705C6.3961 62.8826 6.50387 66.0341 5.93884 67.1181ZM102.278 75.7284C130.465 82.089 158.72 92.3514 186.294 106.242C172.801 112.691 159.137 118.519 145.136 122.657C144.374 122.882 133.997 126.359 120.273 129.552C113.991 127.947 107.523 126.199 100.99 124.228C101.941 108.364 102.35 92.2708 102.277 75.7294L102.278 75.7284ZM71.6527 151.555C65.1601 148.347 58.7742 144.674 52.6468 140.411C52.041 134.367 51.6381 128.298 51.4372 122.226C58.0439 126.338 64.9132 129.896 71.8881 133.015C71.6213 139.189 71.5418 145.375 71.6527 151.555ZM71.6757 152.733C71.7898 157.986 72.0409 163.233 72.4291 168.46C66.3833 164.941 60.4704 161.013 54.7824 156.73C53.9788 151.771 53.3144 146.784 52.787 141.78C58.8872 145.965 65.2334 149.575 71.6757 152.733ZM71.9384 131.889C64.9236 128.734 58.024 125.134 51.3975 120.966C51.2416 115.474 51.251 109.981 51.4278 104.5C58.4185 108.657 65.7251 112.256 73.1668 115.412C72.607 120.885 72.1979 126.381 71.9384 131.889ZM117.637 148.24C125.251 146.399 132.779 144.264 140.197 141.843C138.239 148.02 136.213 154.203 134.13 160.357C127.295 162.742 120.348 164.855 113.308 166.685C114.909 160.736 116.354 154.582 117.637 148.24ZM112.211 166.731C105.802 164.855 99.1654 162.771 92.4667 160.346C93.6689 154.289 94.7958 148.207 95.8422 142.122C102.879 144.405 109.843 146.384 116.583 148.176C115.288 154.559 113.829 160.75 112.211 166.731ZM117.864 147.108C118.936 141.708 119.894 136.174 120.732 130.517C128.755 128.643 136.765 126.428 144.734 123.882C144.539 128.594 142.843 133.455 140.585 140.614C133.116 143.073 125.533 145.24 117.864 147.108ZM116.789 147.148C110.041 145.352 103.065 143.37 96.0211 141.08C96.9576 135.585 97.8292 130.087 98.6318 124.6C105.762 126.8 112.83 128.724 119.68 130.478C118.836 136.163 117.871 141.723 116.789 147.148ZM95.0156 140.75C87.6713 138.333 80.261 135.578 72.9638 132.346C73.2159 126.828 73.6198 121.32 74.1744 115.837C81.9195 119.078 89.8027 121.849 97.6189 124.286C96.8184 129.767 95.9489 135.26 95.0145 140.75H95.0156ZM72.9146 133.469C80.1731 136.665 87.5384 139.396 94.8367 141.793C93.7934 147.868 92.6707 153.938 91.4716 159.984C85.2186 157.689 78.9185 155.089 72.7064 152.072C72.585 145.873 72.6551 139.665 72.9146 133.469ZM91.2655 161.022C90.2306 166.198 89.1403 171.355 87.9967 176.481C83.1238 174.289 78.2845 171.818 73.5246 169.093C73.1218 163.826 72.857 158.54 72.7325 153.247C78.8725 156.206 85.092 158.762 91.2644 161.022H91.2655ZM92.2605 161.384C98.9373 163.798 105.55 165.872 111.937 167.74C110.44 173.195 108.81 178.471 107.051 183.553C101.033 181.798 94.979 179.569 88.9729 176.916C90.1239 171.766 91.2205 166.584 92.2616 161.383L92.2605 161.384ZM112.993 167.847C119.993 166.043 126.904 163.963 133.704 161.613C131.921 166.855 130.098 172.076 128.239 177.254C121.778 179.681 115.089 181.753 108.19 183.458C109.917 178.437 111.521 173.227 112.993 167.847ZM134.958 161.176C141.765 158.785 148.459 156.125 155.017 153.204C153.134 158.106 151.149 162.963 149.065 167.763C142.823 171.152 136.302 174.155 129.526 176.764C131.374 171.601 133.186 166.399 134.958 161.176ZM135.384 159.916C137.458 153.773 139.474 147.604 141.422 141.44C148.335 139.15 155.152 136.612 161.852 133.832C159.905 139.88 157.801 145.883 155.546 151.82C148.957 154.787 142.228 157.488 135.384 159.916ZM141.81 140.208C143.974 133.328 145.674 128.441 145.792 123.542C152.955 121.226 160.085 118.641 167.158 115.796C165.664 121.398 164.033 126.98 162.27 132.525C155.562 135.332 148.735 137.896 141.81 140.208ZM99.9219 123.902C76.6752 116.808 52.7002 106.845 33.4317 90.4397C50.2967 84.3156 68.6664 79.7871 88.0427 76.9505C92.3955 76.3133 96.8896 75.607 101.23 75.5944C101.305 92.1829 100.877 107.992 99.9219 123.902ZM12.9358 67.1192C32.3089 61.9095 72.2073 51.6513 73.2316 51.0695C73.7778 50.7598 74.4297 50.3894 74.9351 49.8778C79.1561 52.9362 81.7646 56.2991 98.027 74.6663C94.6462 74.8976 91.2759 75.4207 87.8931 75.9146C68.5063 78.7439 50.123 83.2787 33.237 89.3976C29.0778 84.6588 17.478 71.4928 12.9358 67.1192ZM32.9357 91.3909C38.4259 96.047 44.2886 100.184 50.4024 103.885C50.2151 109.346 50.1921 114.819 50.3333 120.29C44.5962 116.611 39.0736 112.499 33.8711 107.874C33.2726 102.357 32.9514 96.815 32.9357 91.3909ZM34.0459 109.422C39.218 113.935 44.6925 117.954 50.3689 121.554C50.552 127.584 50.936 133.611 51.5168 139.616C46.5644 136.091 41.7889 132.17 37.2749 127.784C35.8707 121.851 34.7815 115.661 34.0459 109.422ZM43.5771 147.565C41.296 142.108 39.332 136.055 37.7353 129.674C42.1645 133.858 46.8291 137.61 51.6549 140.995C52.1603 145.955 52.8017 150.899 53.577 155.815C50.1523 153.191 46.8124 150.437 43.5771 147.565ZM154.983 170.512C154.388 172.114 150.387 173.788 148.917 174.556C140.696 178.851 110.325 192.861 103.088 192.515C101.104 192.423 99.2951 191.598 97.1365 190.528C82.5431 183.299 68.1872 175.188 54.4329 166.474C52.0504 164.965 49.4753 163.464 48.5608 160.816C47.4444 157.585 46.5257 154.253 45.8236 150.903C63.5184 165.934 85.0721 178.323 107.238 184.7C107.328 184.725 107.416 184.726 107.506 184.705C123.56 180.823 138.504 174.98 152.088 167.285C153.306 168.076 155.497 169.133 154.983 170.512ZM162.315 159.708C158.521 162.281 154.6 164.693 150.561 166.942C152.594 162.21 154.532 157.426 156.371 152.598C160.959 150.523 165.479 148.32 169.925 145.991C167.464 150.741 164.91 155.353 162.316 159.708H162.315ZM170.759 144.368C166.215 146.782 161.592 149.063 156.896 151.21C159.121 145.298 161.199 139.322 163.121 133.304C168.645 130.982 174.087 128.495 179.438 125.848C176.783 132.053 173.852 138.31 170.759 144.37V144.368ZM180.068 124.366C174.65 127.075 169.137 129.617 163.539 131.991C165.283 126.46 166.897 120.894 168.374 115.306C174.492 112.817 180.568 110.134 186.59 107.259C184.733 112.76 182.526 118.53 180.068 124.366Z" fill="#1A202C"/>
<path d="M111.019 119.969C124.663 114.222 134.747 101.972 138.342 88.2173C140.609 79.5391 140.471 69.5686 147.044 57.1016C149.351 52.7258 152.522 47.6532 156.982 45.3074C158.427 44.5477 159.978 44.2663 161.554 43.921C161.926 43.8394 161.953 43.2022 161.554 43.1404C158.779 42.7135 155.963 44.3207 153.883 46.0241C151.574 47.9159 149.748 50.3695 148.212 52.91C138.16 69.5194 140.558 80.9181 136.131 92.8055C131.683 104.747 122.322 114.601 110.988 119.89C110.944 119.909 110.977 119.987 111.021 119.968L111.019 119.969Z" fill="#1A202C"/>
<path d="M177.769 36.9968C177.023 36.8869 176.257 36.9371 175.531 37.1433C175.459 36.7457 175.292 36.3669 175.029 36.0603C175.124 35.692 175.162 35.1385 175.744 34.4343C175.929 34.2115 175.897 33.8819 175.675 33.6977C175.454 33.5136 175.123 33.5449 174.939 33.7668C174.528 34.2648 174.236 34.8476 174.082 35.4702C172.668 35.1396 171.821 35.9159 171.554 36.8974C170.004 35.4378 168.357 34.0681 166.641 32.8157C165.905 32.2778 165.219 32.2527 164.497 33.2499C163.562 34.5379 162.58 36.2162 163.299 37.7815C163.691 38.6332 164.446 39.147 165.33 39.4379C164.598 41.1559 165.432 43.1136 167.569 43.4641C167.39 43.7163 167.226 43.9591 167.08 44.1903C166.92 44.4446 166.621 44.9185 166.689 45.4626C166.794 46.285 167.856 47.3157 169.441 47.3157C171.809 47.3157 173.324 45.1644 173.501 42.7453C173.576 41.7231 173.44 40.7238 173.248 39.7486C174.148 39.7737 175.165 39.1512 175.46 38.2628C175.478 38.2587 175.494 38.2534 175.511 38.2471C176.183 38.0013 176.91 37.9259 177.617 38.0316C177.901 38.0735 178.169 37.8767 178.211 37.5901C178.253 37.3034 178.056 37.0386 177.769 36.9968ZM164.249 37.3452C163.757 36.2738 164.576 34.923 165.343 33.8651C165.585 33.5293 165.691 33.4926 165.726 33.4926C165.942 33.456 169.401 36.2717 171.265 38.0682C169.551 38.9137 165.111 39.2234 164.248 37.3463L164.249 37.3452ZM166.227 41.3171C166.032 40.8337 166.077 40.2404 166.38 39.6796C166.81 39.7424 167.248 39.7685 167.672 39.7685C168.758 39.7685 170.125 39.6231 171.219 39.2223C170.075 40.3994 169.098 41.495 168.317 42.4764C167.457 42.4942 166.544 42.105 166.228 41.3181L166.227 41.3171ZM172.459 42.6689C172.358 44.0354 171.797 45.178 170.916 45.8037C170.063 46.4096 168.65 46.4891 167.905 45.6426C167.653 45.3559 167.666 45.2241 167.965 44.749C168.563 43.8011 169.773 42.1813 172.177 39.735C172.378 40.7102 172.529 41.699 172.458 42.67L172.459 42.6689ZM174.187 38.3403C173.295 38.9995 172.716 38.7201 172.546 37.883C172.402 37.1799 172.674 36.4443 173.463 36.4443C173.983 36.4443 174.355 36.6609 174.491 37.2699C174.566 37.6047 174.532 38.085 174.187 38.3392V38.3403Z" fill="#1A202C"/>
<path d="M113.784 48.7769C113 46.2647 112.013 43.3831 110.13 41.5217C110.196 40.5486 110.089 39.5504 109.918 38.6212C107.617 26.217 96.1792 14.7137 83.6743 12.3814C82.878 12.2328 82.5265 13.4277 83.3353 13.6108C90.5509 15.2504 96.9849 19.0068 101.834 24.6245C106.56 30.102 109.108 37.0287 109.201 40.7463C108.405 40.2001 107.491 39.859 106.504 39.925C104.878 40.0338 103.137 41.1105 102.697 42.7532C102.28 44.307 103.328 45.8231 104.865 46.1485C106.838 46.5671 109.148 45.5333 109.891 42.9373C111.359 44.7736 112.308 47.6343 112.96 49.8431C115.519 58.5193 115.112 67.9017 112.523 76.5193C110.001 84.9119 105.484 92.4821 100.089 99.3313C99.4512 100.141 98.8076 100.945 98.1777 101.761C98.0093 101.979 98.3671 102.238 98.5534 102.051C104.037 96.5523 110.071 87.1876 113.13 77.8429C116.182 68.5159 116.726 58.2043 113.785 48.7759L113.784 48.7769ZM107.578 44.7381C106.465 45.4213 104.433 45.595 103.814 44.1532C103.141 42.5816 105.054 41.2224 106.416 41.0749C107.447 40.9629 108.363 41.4285 109.119 42.1118C108.952 43.179 108.509 44.1657 107.578 44.7381Z" fill="#1A202C"/>
<path d="M79.2115 8.22954C80.4075 6.84525 80.848 4.80594 80.1334 2.42241C79.8226 1.38445 79.381 0.633187 78.7867 0.125717C78.568 -0.0615758 78.2405 -0.0364643 78.0522 0.180126C75.813 2.75409 74.1912 5.33434 72.4762 8.14165C71.7375 7.37992 70.2192 7.1309 69.3183 7.83089C68.9992 7.71475 68.2552 7.60175 67.3962 6.82432C67.1817 6.62971 66.851 6.64645 66.6574 6.86094C66.4639 7.07544 66.4796 7.40608 66.6941 7.6007C67.2539 8.10712 67.9183 8.49113 68.635 8.72341C68.4593 9.13671 68.4048 9.53118 68.4498 9.90262C68.4362 9.91518 68.4226 9.92773 68.4101 9.94134C68.0156 10.3724 67.5113 10.6895 66.9504 10.8569C66.6731 10.9395 66.5162 11.2304 66.5988 11.5077C66.6794 11.7787 66.9672 11.943 67.2497 11.8593C67.8681 11.6751 68.4352 11.3528 68.9092 10.9197C69.4491 11.5087 70.2726 11.8624 71.1002 11.7013C71.2959 11.6625 71.4822 11.5956 71.6548 11.5056C71.57 13.0929 71.4267 15.8468 70.6147 20.5386C70.5582 20.864 70.8125 21.1538 71.1348 21.1507C75.2396 21.114 78.4038 17.1694 77.9946 13.774C79.5432 13.4842 80.4734 12.4902 80.7015 11.4072C80.9725 10.1192 80.2254 8.90966 79.2115 8.2285V8.22954ZM78.4665 1.30493C78.7344 1.66068 78.9541 2.12839 79.132 2.72166C80.3364 6.73643 77.8031 9.71952 73.1835 8.99022C74.8776 6.21327 76.3895 3.76903 78.4665 1.30388V1.30493ZM69.7023 10.2322C69.4198 9.94971 69.4501 9.5113 69.5726 9.19426C69.9817 8.13851 71.3995 8.38649 71.7929 8.94942C72.336 9.72789 71.0259 11.5548 69.7023 10.2322ZM71.7594 20.0531C72.6227 14.812 72.6928 11.3518 72.7859 10.5032C73.781 10.5095 75.0994 10.9197 76.016 11.8927C78.5094 14.5368 75.8308 19.4786 71.7594 20.0531ZM79.6793 11.1917C79.4951 12.0654 78.6172 12.6147 77.7602 12.7664C77.5562 12.1972 77.2339 11.6584 76.7777 11.175C76.3581 10.7303 75.8758 10.3808 75.3704 10.1161C76.5465 9.9947 77.5824 9.59814 78.4079 8.97871C79.4093 9.5113 79.8414 10.4237 79.6793 11.1917Z" fill="#1A202C"/>
</svg>
