<svg width="24" height="24" viewBox="0 0 24 24" fill="none" xmlns="http://www.w3.org/2000/svg">
<path d="M20 12V22H4V12" stroke="#1F2223" stroke-width="2" stroke-linecap="round" stroke-linejoin="round"/>
<path d="M22 7H2V12H22V7Z" stroke="#1F2223" stroke-width="2" stroke-linecap="round" stroke-linejoin="round"/>
<path d="M12 22V7" stroke="#1F2223" stroke-width="2" stroke-linecap="round" stroke-linejoin="round"/>
<path d="M7.5 7H12C12 7 11 2 7.5 2C6.83696 2 6.20107 2.26339 5.73223 2.73223C5.26339 3.20107 5 3.83696 5 4.5C5 5.16304 5.26339 5.79893 5.73223 6.26777C6.20107 6.73661 6.83696 7 7.5 7Z" stroke="#1F2223" stroke-width="2" stroke-linecap="round" stroke-linejoin="round"/>
<path d="M16.5 7H12C12 7 13 2 16.5 2C17.163 2 17.7989 2.26339 18.2678 2.73223C18.7366 3.20107 19 3.83696 19 4.5C19 5.16304 18.7366 5.79893 18.2678 6.26777C17.7989 6.73661 17.163 7 16.5 7Z" stroke="#1F2223" stroke-width="2" stroke-linecap="round" stroke-linejoin="round"/>
</svg>
