<svg width="24" height="24" viewBox="0 0 24 24" fill="none" xmlns="http://www.w3.org/2000/svg">
<g clip-path="url(#clip0_1_1711)">
<path d="M12.0001 22.13L22.6501 14.39C22.8018 14.2918 22.9178 14.1473 22.9809 13.9779C23.0439 13.8086 23.0507 13.6234 23.0001 13.45L21.7301 9.68996L19.2901 2.17996C19.2694 2.11158 19.2315 2.04963 19.1801 1.99996C19.1009 1.92758 18.9975 1.88745 18.8901 1.88745C18.7828 1.88745 18.6794 1.92758 18.6001 1.99996C18.5515 2.04397 18.5138 2.09877 18.4901 2.15996L16.0501 9.66996H7.95014L5.51014 2.17996C5.48939 2.11158 5.45153 2.04963 5.40014 1.99996C5.32091 1.92758 5.21746 1.88745 5.11014 1.88745C5.00282 1.88745 4.89938 1.92758 4.82014 1.99996C4.77148 2.04397 4.73381 2.09877 4.71014 2.15996L2.27014 9.66996L1.05014 13.45C0.994592 13.6183 0.993694 13.7998 1.04758 13.9687C1.10146 14.1375 1.20737 14.285 1.35014 14.39L12.0001 22.13Z" stroke="#1F2223" stroke-width="2" stroke-linecap="round" stroke-linejoin="round"/>
</g>
<defs>
<clipPath id="clip0_1_1711">
<rect width="24" height="24" fill="white"/>
</clipPath>
</defs>
</svg>
