<svg width="24" height="24" viewBox="0 0 24 24" fill="none" xmlns="http://www.w3.org/2000/svg">
<path d="M19.806 2.1975C20.376 2.448 21 2.922 21 3.75C21 4.557 20.415 5.0355 19.86 5.2965C19.2975 5.559 18.555 5.7105 17.7615 5.8065C16.1715 6 14.0715 6 12.039 6H12C9.921 6 7.9095 6 6.4185 6.1815C5.6655 6.2745 5.118 6.4015 4.776 6.5625C4.67543 6.60114 4.58436 6.661 4.509 6.738L4.5045 6.744C4.5225 6.783 4.617 6.939 5.067 7.122C5.604 7.3425 6.435 7.5 7.5 7.5V9C6.3135 9 5.271 8.829 4.4955 8.5095C3.789 8.22 3 7.665 3 6.75C3 5.943 3.585 5.4645 4.14 5.2035C4.7025 4.941 5.445 4.7895 6.2385 4.6935C7.8285 4.5 9.9285 4.5 11.961 4.5H12C14.079 4.5 16.0905 4.5 17.5815 4.3185C18.3345 4.2255 18.882 4.0985 19.224 3.9375C19.3246 3.89886 19.4156 3.839 19.491 3.762L19.497 3.756L19.494 3.753C19.4085 3.67284 19.3081 3.61017 19.1985 3.5685C18.8285 3.4045 18.2395 3.276 17.4315 3.183C15.8325 3 13.6605 3 11.3655 3C11.1666 3 10.9758 2.92098 10.8352 2.78033C10.6945 2.63968 10.6155 2.44891 10.6155 2.25C10.6155 2.05109 10.6945 1.86032 10.8352 1.71967C10.9758 1.57902 11.1666 1.5 11.3655 1.5H11.403C13.653 1.5 15.9075 1.5 17.601 1.692C18.4455 1.788 19.221 1.938 19.806 2.1975ZM8.9985 9.75C8.9985 9.45453 9.0567 9.16194 9.16977 8.88896C9.28284 8.61598 9.44858 8.36794 9.65751 8.15901C9.86644 7.95008 10.1145 7.78434 10.3875 7.67127C10.6604 7.5582 10.953 7.5 11.2485 7.5C11.544 7.5 11.8366 7.5582 12.1095 7.67127C12.3825 7.78434 12.6306 7.95008 12.8395 8.15901C13.0484 8.36794 13.2142 8.61598 13.3272 8.88896C13.4403 9.16194 13.4985 9.45453 13.4985 9.75V12.105L15.561 12.42C16.077 12.4985 16.5709 12.6838 17.0111 12.964C17.4514 13.2443 17.8283 13.6134 18.1177 14.0477C18.4072 14.482 18.6028 14.972 18.692 15.4862C18.7813 16.0004 18.7622 16.5276 18.636 17.034L17.8065 20.361C17.6991 20.7918 17.4665 21.1812 17.1382 21.4802C16.8099 21.7791 16.4005 21.9743 15.9615 22.041L13.1115 22.476C12.1995 22.6125 11.352 22.1805 10.8285 21.549C10.383 21.012 9.693 20.322 8.805 19.845L8.7405 19.806L5.0505 17.3115C4.84242 17.1705 4.6819 16.9697 4.59006 16.7357C4.49823 16.5017 4.47938 16.2454 4.536 16.0005C4.6303 15.5915 4.81781 15.2097 5.08391 14.8851C5.35 14.5604 5.68749 14.3016 6.07005 14.1288C6.45262 13.9561 6.86992 13.874 7.28942 13.889C7.70892 13.9041 8.11928 14.0158 8.4885 14.2155L8.9985 14.493V9.75Z" fill="black"/>
</svg>
