<svg width="24" height="24" viewBox="0 0 24 24" fill="none" xmlns="http://www.w3.org/2000/svg">
<path d="M20.1301 4.15499C19.5337 3.64454 18.8255 3.28169 18.0629 3.0958C17.3002 2.90991 16.5045 2.90621 15.7401 3.08499C14.2034 3.42146 12.8604 4.34796 12.0001 5.66499C11.1446 4.35223 9.80942 3.42625 8.2801 3.08499C7.51917 2.90221 6.72635 2.89735 5.96324 3.07079C5.20013 3.24422 4.48728 3.59128 3.8801 4.08499C2.3001 5.46499 1.4301 8.52499 2.4201 11.625C2.5321 11.9677 2.66543 12.301 2.8201 12.625C2.8601 12.7003 2.89677 12.777 2.9301 12.855C5.5001 18.095 11.4401 20.855 11.7001 20.985C11.7967 21.0318 11.9028 21.0557 12.0101 21.055C12.1174 21.0557 12.2235 21.0318 12.3201 20.985C12.5701 20.875 18.5701 18.135 21.1201 12.835L21.2001 12.665C21.3581 12.325 21.4948 11.975 21.6101 11.615C22.5501 8.61499 21.6901 5.55499 20.1301 4.15499ZM19.8201 12.085C19.6801 12.399 19.5201 12.7023 19.3401 12.995H16.0301C15.8654 12.9941 15.7034 12.9526 15.5586 12.8741C15.4139 12.7956 15.2907 12.6826 15.2001 12.545L14.1501 10.985L11.9201 15.445C11.8497 15.5862 11.7468 15.7088 11.6199 15.8026C11.493 15.8965 11.3458 15.959 11.1901 15.985H11.0301C10.8978 15.9844 10.7669 15.9576 10.645 15.9061C10.5232 15.8546 10.4127 15.7795 10.3201 15.685L7.6101 12.985H4.7001C4.5161 12.661 4.34943 12.3277 4.2001 11.985C4.04531 11.663 3.91819 11.3285 3.8201 10.985H8.0301C8.16171 10.9842 8.29217 11.0095 8.41401 11.0592C8.53584 11.109 8.64666 11.1823 8.7401 11.275L10.7401 13.275L13.1201 8.51499C13.1992 8.35739 13.3186 8.22352 13.4661 8.12692C13.6136 8.03033 13.784 7.97447 13.9601 7.96499C14.1339 7.95449 14.3075 7.98956 14.4636 8.06674C14.6197 8.14391 14.7529 8.26051 14.8501 8.40499L16.5501 10.965H20.2501C20.1408 11.3517 19.9974 11.725 19.8201 12.085Z" fill="black"/>
</svg>
