<svg width="24" height="24" viewBox="0 0 24 24" fill="none" xmlns="http://www.w3.org/2000/svg">
<path d="M21 8.00002V16C20.9996 16.3507 20.9071 16.6952 20.7315 16.9989C20.556 17.3025 20.3037 17.5547 20 17.73L13 21.73C12.696 21.9056 12.3511 21.998 12 21.998C11.6489 21.998 11.304 21.9056 11 21.73L4 17.73C3.69626 17.5547 3.44398 17.3025 3.26846 16.9989C3.09294 16.6952 3.00036 16.3507 3 16V8.00002C3.00036 7.6493 3.09294 7.30483 3.26846 7.00119C3.44398 6.69754 3.69626 6.44539 4 6.27002L11 2.27002C11.304 2.09449 11.6489 2.00208 12 2.00208C12.3511 2.00208 12.696 2.09449 13 2.27002L20 6.27002C20.3037 6.44539 20.556 6.69754 20.7315 7.00119C20.9071 7.30483 20.9996 7.6493 21 8.00002Z" stroke="#1F2223" stroke-width="2" stroke-linecap="round" stroke-linejoin="round"/>
</svg>
