<svg width="20" height="20" viewBox="0 0 20 20" fill="none" xmlns="http://www.w3.org/2000/svg">
<path d="M4.69667 15.3033C5.92371 16.5303 7.53828 17.2939 9.26524 17.4639C10.9922 17.6339 12.7247 17.1998 14.1674 16.2356C15.6102 15.2714 16.6739 13.8367 17.1774 12.176C17.6809 10.5153 17.5929 8.73147 16.9285 7.1284C16.2641 5.52533 15.0643 4.20225 13.5337 3.38465C12.0031 2.56704 10.2363 2.3055 8.53443 2.6446C6.83258 2.98369 5.30097 3.90244 4.20061 5.24427C3.10025 6.5861 2.49924 8.26797 2.5 10.0033V11.6666" stroke="white" stroke-width="1.5" stroke-linecap="round" stroke-linejoin="round"/>
<path d="M0.833008 9.99984L2.49967 11.6665L4.16634 9.99984M9.16634 6.6665V10.8332H13.333" stroke="white" stroke-width="1.5" stroke-linecap="round" stroke-linejoin="round"/>
</svg>
