<svg width="33" height="32" viewBox="0 0 33 32" fill="none" xmlns="http://www.w3.org/2000/svg">
<path d="M5.83301 4H27.1663M7.83301 4V6.70667C7.83308 7.52353 8.0208 8.32945 8.38166 9.06228C8.74253 9.79511 9.2669 10.4353 9.91434 10.9333L16.4997 16M16.4997 16L23.085 10.9333C23.7324 10.4353 24.2568 9.79511 24.6177 9.06228C24.9786 8.32945 25.1663 7.52353 25.1663 6.70667V4M16.4997 16L9.91434 21.0667C9.2669 21.5647 8.74253 22.2049 8.38166 22.9377C8.0208 23.6705 7.83308 24.4765 7.83301 25.2933V28M16.4997 16L23.085 21.0667C23.7324 21.5647 24.2568 22.2049 24.6177 22.9377C24.9786 23.6705 25.1663 24.4765 25.1663 25.2933V28M5.83301 28H27.1663" stroke="white" stroke-width="1.5" stroke-linecap="round" stroke-linejoin="round"/>
</svg>
