<svg width="24" height="24" viewBox="0 0 24 24" fill="none" xmlns="http://www.w3.org/2000/svg">
<path d="M22 7C22 4.23858 19.7614 2 17 2H12H7C4.23858 2 2 4.23858 2 7V17C2 19.7614 4.23858 22 7 22H17C19.7614 22 22 19.7614 22 17V7Z" stroke="#1F2223" stroke-width="2" stroke-linecap="round" stroke-linejoin="round"/>
<path d="M15.594 13.7991C15.9815 13.0523 16.1236 12.2023 16.0002 11.3701C15.8743 10.5211 15.4787 9.73521 14.8719 9.12836C14.265 8.52152 13.4791 8.12594 12.6302 8.00006C11.7979 7.87665 10.948 8.0188 10.2012 8.4063C9.45438 8.7938 8.84878 9.40691 8.47052 10.1584C8.09226 10.91 7.9606 11.7616 8.09426 12.5923C8.22793 13.4229 8.62011 14.1903 9.21503 14.7852C9.80996 15.3801 10.5773 15.7723 11.408 15.906C12.2386 16.0397 13.0903 15.908 13.8418 15.5297C14.5933 15.1515 15.2065 14.5459 15.594 13.7991Z" stroke="#1F2223" stroke-width="2" stroke-linecap="round" stroke-linejoin="round"/>
<path d="M17.5 6.5H17.51" stroke="#1F2223" stroke-width="2" stroke-linecap="round" stroke-linejoin="round"/>
</svg>
