<svg width="24" height="24" viewBox="0 0 24 24" fill="none" xmlns="http://www.w3.org/2000/svg">
<path d="M4.75049 1.875C4.1869 1.875 3.6464 2.09888 3.24789 2.4974C2.84937 2.89591 2.62549 3.43641 2.62549 4C2.62549 4.56358 2.84937 5.10409 3.24789 5.5026C3.6464 5.90112 4.1869 6.125 4.75049 6.125C5.31407 6.125 5.85458 5.90112 6.25309 5.5026C6.65161 5.10409 6.87549 4.56358 6.87549 4C6.87549 3.43641 6.65161 2.89591 6.25309 2.4974C5.85458 2.09888 5.31407 1.875 4.75049 1.875ZM2.75049 7.875C2.71734 7.875 2.68554 7.88817 2.6621 7.91161C2.63866 7.93505 2.62549 7.96685 2.62549 8V21C2.62549 21.069 2.68149 21.125 2.75049 21.125H6.75049C6.78364 21.125 6.81543 21.1118 6.83888 21.0884C6.86232 21.0649 6.87549 21.0331 6.87549 21V8C6.87549 7.96685 6.86232 7.93505 6.83888 7.91161C6.81543 7.88817 6.78364 7.875 6.75049 7.875H2.75049ZM9.25049 7.875C9.21734 7.875 9.18554 7.88817 9.1621 7.91161C9.13866 7.93505 9.12549 7.96685 9.12549 8V21C9.12549 21.069 9.18149 21.125 9.25049 21.125H13.2505C13.2836 21.125 13.3154 21.1118 13.3389 21.0884C13.3623 21.0649 13.3755 21.0331 13.3755 21V14C13.3755 13.5027 13.573 13.0258 13.9247 12.6742C14.2763 12.3225 14.7532 12.125 15.2505 12.125C15.7478 12.125 16.2247 12.3225 16.5763 12.6742C16.9279 13.0258 17.1255 13.5027 17.1255 14V21C17.1255 21.069 17.1815 21.125 17.2505 21.125H21.2505C21.2836 21.125 21.3154 21.1118 21.3389 21.0884C21.3623 21.0649 21.3755 21.0331 21.3755 21V12.38C21.3755 9.953 19.2655 8.055 16.8505 8.274C16.1034 8.34254 15.3715 8.52744 14.6815 8.822L13.3755 9.382V8C13.3755 7.96685 13.3623 7.93505 13.3389 7.91161C13.3154 7.88817 13.2836 7.875 13.2505 7.875H9.25049Z" fill="black"/>
</svg>
