<svg width="24" height="24" viewBox="0 0 24 24" fill="none" xmlns="http://www.w3.org/2000/svg">
<path d="M20 2H4V4L9.81 8.36C8.04674 8.94143 6.58648 10.1992 5.75016 11.8568C4.91385 13.5144 4.76992 15.4363 5.35 17.2C5.63699 18.0737 6.09342 18.8822 6.69318 19.5794C7.29294 20.2765 8.02426 20.8486 8.84531 21.2628C9.66635 21.677 10.561 21.9253 11.4781 21.9935C12.3952 22.0616 13.3167 21.9483 14.19 21.66C15.5905 21.1997 16.8099 20.309 17.6744 19.1149C18.5388 17.9207 19.0043 16.4842 19.0043 15.01C19.0043 13.5358 18.5388 12.0993 17.6744 10.9051C16.8099 9.71103 15.5905 8.82031 14.19 8.36L20 4V2ZM14.94 19.5L12 17.78L9.06 19.5L9.84 16.17L7.25 13.93L10.66 13.64L12 10.5L13.34 13.64L16.75 13.93L14.16 16.17L14.94 19.5Z" fill="black"/>
</svg>
