<svg width="24" height="24" viewBox="0 0 24 24" fill="none" xmlns="http://www.w3.org/2000/svg">
<path d="M11 17.5C10.8011 17.5 10.6103 17.579 10.4697 17.7197C10.329 17.8603 10.25 18.0511 10.25 18.25C10.25 18.4489 10.329 18.6397 10.4697 18.7803C10.6103 18.921 10.8011 19 11 19H13C13.1989 19 13.3897 18.921 13.5303 18.7803C13.671 18.6397 13.75 18.4489 13.75 18.25C13.75 18.0511 13.671 17.8603 13.5303 17.7197C13.3897 17.579 13.1989 17.5 13 17.5H11Z" fill="black"/>
<path fill-rule="evenodd" clip-rule="evenodd" d="M8 2C7.40326 2 6.83097 2.23705 6.40901 2.65901C5.98705 3.08097 5.75 3.65326 5.75 4.25V19.75C5.75 20.3467 5.98705 20.919 6.40901 21.341C6.83097 21.7629 7.40326 22 8 22H16C16.5967 22 17.169 21.7629 17.591 21.341C18.0129 20.919 18.25 20.3467 18.25 19.75V4.25C18.25 3.65326 18.0129 3.08097 17.591 2.65901C17.169 2.23705 16.5967 2 16 2H8ZM7.25 4.25C7.25 4.05109 7.32902 3.86032 7.46967 3.71967C7.61032 3.57902 7.80109 3.5 8 3.5H16C16.1989 3.5 16.3897 3.57902 16.5303 3.71967C16.671 3.86032 16.75 4.05109 16.75 4.25V19.75C16.75 19.9489 16.671 20.1397 16.5303 20.2803C16.3897 20.421 16.1989 20.5 16 20.5H8C7.80109 20.5 7.61032 20.421 7.46967 20.2803C7.32902 20.1397 7.25 19.9489 7.25 19.75V4.25Z" fill="black"/>
</svg>
