<svg width="32" height="32" viewBox="0 0 32 32" fill="none" xmlns="http://www.w3.org/2000/svg">
<path d="M11.1992 14.4C11.1992 13.5513 11.5364 12.7374 12.1365 12.1373C12.7366 11.5372 13.5505 11.2 14.3992 11.2C15.2479 11.2 16.0618 11.5372 16.662 12.1373C17.2621 12.7374 17.5992 13.5513 17.5992 14.4C17.5992 15.2487 17.2621 16.0626 16.662 16.6628C16.0618 17.2629 15.2479 17.6 14.3992 17.6C13.5505 17.6 12.7366 17.2629 12.1365 16.6628C11.5364 16.0626 11.1992 15.2487 11.1992 14.4ZM14.3992 12.8C13.9749 12.8 13.5679 12.9686 13.2678 13.2687C12.9678 13.5687 12.7992 13.9757 12.7992 14.4C12.7992 14.8244 12.9678 15.2313 13.2678 15.5314C13.5679 15.8315 13.9749 16 14.3992 16C14.8236 16 15.2305 15.8315 15.5306 15.5314C15.8306 15.2313 15.9992 14.8244 15.9992 14.4C15.9992 13.9757 15.8306 13.5687 15.5306 13.2687C15.2305 12.9686 14.8236 12.8 14.3992 12.8ZM5.59922 6.40002C4.9627 6.40002 4.35225 6.65288 3.90216 7.10297C3.45208 7.55306 3.19922 8.1635 3.19922 8.80002V20C3.19922 20.6365 3.45208 21.247 3.90216 21.6971C4.35225 22.1472 4.9627 22.4 5.59922 22.4H23.1992C23.8357 22.4 24.4462 22.1472 24.8963 21.6971C25.3464 21.247 25.5992 20.6365 25.5992 20V8.80002C25.5992 8.1635 25.3464 7.55306 24.8963 7.10297C24.4462 6.65288 23.8357 6.40002 23.1992 6.40002H5.59922ZM4.79922 8.80002C4.79922 8.58785 4.8835 8.38437 5.03353 8.23434C5.18356 8.08431 5.38705 8.00002 5.59922 8.00002H7.99922V9.60002C7.99922 10.0244 7.83065 10.4313 7.53059 10.7314C7.23053 11.0315 6.82357 11.2 6.39922 11.2H4.79922V8.80002ZM4.79922 12.8H6.39922C7.24791 12.8 8.06184 12.4629 8.66196 11.8628C9.26208 11.2627 9.59922 10.4487 9.59922 9.60002V8.00002H19.1992V9.60002C19.1992 10.4487 19.5364 11.2627 20.1365 11.8628C20.7366 12.4629 21.5505 12.8 22.3992 12.8H23.9992V16H22.3992C21.5505 16 20.7366 16.3372 20.1365 16.9373C19.5364 17.5374 19.1992 18.3513 19.1992 19.2V20.8H9.59922V19.2C9.59922 18.3513 9.26208 17.5374 8.66196 16.9373C8.06184 16.3372 7.24791 16 6.39922 16H4.79922V12.8ZM20.7992 8.00002H23.1992C23.4114 8.00002 23.6149 8.08431 23.7649 8.23434C23.9149 8.38437 23.9992 8.58785 23.9992 8.80002V11.2H22.3992C21.9749 11.2 21.5679 11.0315 21.2678 10.7314C20.9678 10.4313 20.7992 10.0244 20.7992 9.60002V8.00002ZM23.9992 17.6V20C23.9992 20.2122 23.9149 20.4157 23.7649 20.5657C23.6149 20.7157 23.4114 20.8 23.1992 20.8H20.7992V19.2C20.7992 18.7757 20.9678 18.3687 21.2678 18.0687C21.5679 17.7686 21.9749 17.6 22.3992 17.6H23.9992ZM7.99922 20.8H5.59922C5.38705 20.8 5.18356 20.7157 5.03353 20.5657C4.8835 20.4157 4.79922 20.2122 4.79922 20V17.6H6.39922C6.82357 17.6 7.23053 17.7686 7.53059 18.0687C7.83065 18.3687 7.99922 18.7757 7.99922 19.2V20.8ZM27.1992 20C27.1992 21.0609 26.7778 22.0783 26.0276 22.8285C25.2775 23.5786 24.2601 24 23.1992 24H6.53522C6.70073 24.4681 7.00735 24.8734 7.41283 25.16C7.81832 25.4465 8.3027 25.6003 8.79922 25.6H23.1992C24.6844 25.6 26.1088 25.01 27.159 23.9598C28.2092 22.9096 28.7992 21.4852 28.7992 20V12C28.7995 11.5035 28.6457 11.0191 28.3592 10.6136C28.0726 10.2082 27.6673 9.90153 27.1992 9.73602V20Z" fill="#EEE6DE"/>
</svg>
