<svg width="24" height="24" viewBox="0 0 24 24" fill="none" xmlns="http://www.w3.org/2000/svg">
<path d="M7.7875 22C6.18083 22 4.81458 21.4371 3.68875 20.3113C2.56292 19.1854 2 17.8162 2 16.2037C2 15.5304 2.11542 14.8746 2.34625 14.2362C2.57708 13.5979 2.91042 13.0167 3.34625 12.4925L7.73625 7.22125L5.875 3.4525C5.69917 3.11583 5.70667 2.78958 5.8975 2.47375C6.08917 2.15792 6.37667 2 6.76 2H17.24C17.6233 2 17.9108 2.15792 18.1025 2.47375C18.2942 2.78958 18.3017 3.11583 18.125 3.4525L16.2638 7.22125L20.6538 12.4925C21.0896 13.0167 21.4229 13.5979 21.6537 14.2362C21.8846 14.8737 22 15.5296 22 16.2037C22 17.8162 21.4375 19.1854 20.3125 20.3113C19.1875 21.4371 17.8208 22 16.2125 22H7.7875ZM11.9963 16.35C11.4396 16.35 10.9646 16.1521 10.5713 15.7563C10.1779 15.3604 9.98125 14.8842 9.98125 14.3275C9.98125 13.7708 10.1792 13.2958 10.575 12.9025C10.9708 12.5092 11.4475 12.3125 12.005 12.3125C12.5625 12.3125 13.0375 12.5108 13.43 12.9075C13.8225 13.3042 14.0192 13.7804 14.02 14.3363C14.0208 14.8921 13.8225 15.3671 13.425 15.7612C13.0275 16.1554 12.5512 16.3521 11.9963 16.3512M8.8875 6.6875H15.1375L16.8438 3.25H7.15625L8.8875 6.6875ZM7.7875 20.75H16.2125C17.48 20.75 18.5533 20.3067 19.4325 19.42C20.3108 18.5317 20.75 17.4604 20.75 16.2062C20.75 15.6779 20.6613 15.1633 20.4838 14.6625C20.3063 14.1617 20.0458 13.7075 19.7025 13.3L15.2275 7.9375H8.8025L4.3225 13.2937C3.9775 13.7004 3.7125 14.1567 3.5275 14.6625C3.3425 15.1675 3.25 15.6838 3.25 16.2113C3.25 17.4629 3.69375 18.5325 4.58125 19.42C5.46792 20.3067 6.53667 20.75 7.7875 20.75Z" fill="black"/>
</svg>
