<svg width="24" height="24" viewBox="0 0 24 24" fill="none" xmlns="http://www.w3.org/2000/svg">
<path d="M19.1581 17.4668C20.2038 16.1144 20.8426 14.4922 20.9999 12.79C19.6516 13.7866 17.9905 14.2662 16.3185 14.1415C14.6465 14.0168 13.0748 13.2961 11.8893 12.1106C10.7038 10.9251 9.98312 9.35338 9.85843 7.68141C9.73375 6.00945 10.2133 4.34827 11.2099 3C9.5077 3.15731 7.8855 3.79614 6.53311 4.84175C5.18073 5.88737 4.15411 7.29651 3.57336 8.9043C2.99262 10.5121 2.88178 12.252 3.25381 13.9205C3.62584 15.589 4.46536 17.117 5.67413 18.3258C6.8829 19.5345 8.41092 20.3741 10.0794 20.7461C11.7479 21.1181 13.4878 21.0073 15.0956 20.4265C16.7034 19.8458 18.1125 18.8192 19.1581 17.4668Z" stroke="#1F2223" stroke-width="2" stroke-linecap="round" stroke-linejoin="round"/>
</svg>
