<svg width="24" height="24" viewBox="0 0 24 24" fill="none" xmlns="http://www.w3.org/2000/svg">
<g clip-path="url(#clip0_1_1837)">
<path d="M10.6799 13.31C11.6948 14.3257 12.8418 15.2002 14.0899 15.91L15.3599 14.64C15.6318 14.3711 15.9751 14.1858 16.3491 14.1061C16.723 14.0263 17.112 14.0554 17.4699 14.19C18.3772 14.5285 19.3199 14.7634 20.2799 14.89C20.7605 14.9579 21.1999 15.1982 21.5164 15.5662C21.8329 15.9342 22.0047 16.4047 21.9999 16.89V19.89C22.0011 20.1685 21.944 20.4441 21.8324 20.6993C21.7209 20.9545 21.5572 21.1836 21.352 21.3718C21.1468 21.5601 20.9045 21.7035 20.6407 21.7927C20.3769 21.8819 20.0973 21.915 19.8199 21.89C16.7428 21.5556 13.7869 20.5041 11.1899 18.82C9.9852 18.055 8.86846 17.1596 7.85993 16.15M5.18993 12.81C3.50579 10.213 2.45429 7.25714 2.11993 4.17997C2.09494 3.90344 2.12781 3.62474 2.21643 3.3616C2.30506 3.09846 2.4475 2.85666 2.6347 2.6516C2.82189 2.44653 3.04974 2.28268 3.30372 2.1705C3.55771 2.05831 3.83227 2.00024 4.10993 1.99997H7.10993C7.59524 1.9952 8.06572 2.16705 8.43369 2.48351C8.80166 2.79996 9.04201 3.23942 9.10993 3.71997C9.23656 4.68004 9.47138 5.6227 9.80993 6.52997C9.94448 6.8879 9.9736 7.27689 9.89384 7.65086C9.81408 8.02482 9.6288 8.36809 9.35993 8.63998L8.08993 9.90997" stroke="#1F2223" stroke-width="2" stroke-linecap="round" stroke-linejoin="round"/>
<path d="M23 1L1 23" stroke="#1F2223" stroke-width="2" stroke-linecap="round" stroke-linejoin="round"/>
</g>
<defs>
<clipPath id="clip0_1_1837">
<rect width="24" height="24" fill="white"/>
</clipPath>
</defs>
</svg>
