<svg width="24" height="24" viewBox="0 0 24 24" fill="none" xmlns="http://www.w3.org/2000/svg">
<path d="M10.53 15.47C10.6704 15.6107 10.7493 15.8013 10.7493 16C10.7493 16.1988 10.6704 16.3894 10.53 16.53L8.52997 18.53C8.12533 18.9349 7.57679 19.1629 7.00441 19.1642C6.43204 19.1655 5.88246 18.94 5.47597 18.537C5.40404 18.4683 5.34652 18.3859 5.30676 18.2946C5.26699 18.2034 5.24579 18.1052 5.24437 18.0057C5.24295 17.9062 5.26135 17.8074 5.29849 17.715C5.33564 17.6227 5.39078 17.5387 5.46072 17.4679C5.53066 17.3971 5.61399 17.3409 5.70585 17.3027C5.79771 17.2644 5.89627 17.2448 5.99579 17.245C6.09531 17.2452 6.19379 17.2652 6.2855 17.3038C6.37721 17.3425 6.46031 17.399 6.52997 17.47C6.78897 17.73 7.20997 17.73 7.46897 17.47L9.46897 15.47C9.60959 15.3296 9.80022 15.2507 9.99897 15.2507C10.1977 15.2507 10.3893 15.3296 10.53 15.47ZM13.301 3.52504C14.252 2.57398 15.542 2.03967 16.887 2.03967C18.232 2.03967 19.5219 2.57398 20.473 3.52504C21.424 4.47611 21.9583 5.76603 21.9583 7.11104C21.9583 8.45605 21.424 9.74598 20.473 10.697L10.695 20.475C9.7439 21.4261 8.45398 21.9604 7.10897 21.9604C5.76396 21.9604 4.47403 21.4261 3.52297 20.475C2.5719 19.524 2.0376 18.2341 2.0376 16.889C2.0376 15.544 2.5719 14.2541 3.52297 13.303L13.301 3.52504ZM19.412 4.58604C19.0804 4.25435 18.6868 3.99123 18.2536 3.81171C17.8203 3.63218 17.3559 3.53978 16.887 3.53978C16.418 3.53978 15.9536 3.63218 15.5204 3.81171C15.0871 3.99123 14.6935 4.25435 14.362 4.58604L10.003 8.94504L15.053 13.995L19.413 9.63604C19.7447 9.30451 20.0078 8.91088 20.1873 8.47763C20.3668 8.04439 20.4592 7.58001 20.4592 7.11104C20.4592 6.64207 20.3668 6.1777 20.1873 5.74445C20.0078 5.3112 19.7437 4.91757 19.412 4.58604ZM13.994 15.056L8.94397 10.006L4.58497 14.364C4.24908 14.6947 3.98197 15.0885 3.79904 15.5229C3.6161 15.9573 3.52096 16.4236 3.51911 16.8949C3.51725 17.3662 3.60871 17.8332 3.78822 18.269C3.96773 18.7048 4.23173 19.1007 4.565 19.434C4.89827 19.7673 5.29422 20.0313 5.73002 20.2108C6.16581 20.3903 6.63283 20.4818 7.10414 20.4799C7.57546 20.478 8.04174 20.3829 8.47611 20.2C8.91047 20.017 9.30433 19.7499 9.63497 19.414L13.994 15.056Z" fill="black"/>
</svg>
