<svg width="24" height="24" viewBox="0 0 24 24" fill="none" xmlns="http://www.w3.org/2000/svg">
<path d="M20 3H4C3.46957 3 2.96086 3.21071 2.58579 3.58579C2.21071 3.96086 2 4.46957 2 5V11C2 13.6522 3.05357 16.1957 4.92893 18.0711C5.85752 18.9997 6.95991 19.7362 8.17317 20.2388C9.38642 20.7413 10.6868 21 12 21C14.6522 21 17.1957 19.9464 19.0711 18.0711C20.9464 16.1957 22 13.6522 22 11V5C22 4.46957 21.7893 3.96086 21.4142 3.58579C21.0391 3.21071 20.5304 3 20 3Z" stroke="#1F2223" stroke-width="2" stroke-linecap="round" stroke-linejoin="round"/>
<path d="M8 10L12 14L16 10" stroke="#1F2223" stroke-width="2" stroke-linecap="round" stroke-linejoin="round"/>
</svg>
