<svg width="24" height="24" viewBox="0 0 24 24" fill="none" xmlns="http://www.w3.org/2000/svg">
<path d="M18.3684 2V7.88235H19.5263C20.4476 7.88235 21.3311 8.2542 21.9826 8.91609C22.634 9.57799 23 10.4757 23 11.4118V17.2941H18.3684V22H5.63158V17.2941H1V11.4118C1 10.4757 1.36598 9.57799 2.01742 8.91609C2.66886 8.2542 3.55241 7.88235 4.47368 7.88235H5.63158V2H18.3684ZM19.5263 12.5882C19.2192 12.5882 18.9247 12.4643 18.7076 12.2437C18.4904 12.023 18.3684 11.7238 18.3684 11.4118C18.3684 11.0997 18.4904 10.8005 18.7076 10.5799C18.9247 10.3592 19.2192 10.2353 19.5263 10.2353C19.8334 10.2353 20.1279 10.3592 20.3451 10.5799C20.5622 10.8005 20.6842 11.0997 20.6842 11.4118C20.6842 11.7238 20.5622 12.023 20.3451 12.2437C20.1279 12.4643 19.8334 12.5882 19.5263 12.5882ZM2.15789 11.4118V16.1176H5.63158V13.7647H18.3684V16.1176H21.8421V11.4118C21.8421 10.7877 21.5981 10.1892 21.1638 9.74798C20.7295 9.30672 20.1405 9.05882 19.5263 9.05882H4.47368C3.8595 9.05882 3.27047 9.30672 2.83617 9.74798C2.40188 10.1892 2.15789 10.7877 2.15789 11.4118ZM17.2105 20.8235V14.9412H6.78947V20.8235H17.2105ZM6.78947 3.17647V7.88235H17.2105V3.17647H6.78947Z" fill="black"/>
</svg>
