<svg width="28" height="28" viewBox="0 0 28 28" fill="none" xmlns="http://www.w3.org/2000/svg">
<path d="M4.19169 10.701C4.80119 10.701 5.12919 10.361 5.12919 9.74005V6.97505C5.12919 5.75605 5.78519 5.13505 6.95719 5.13505H9.79319C10.4027 5.13505 10.7422 4.79505 10.7422 4.18555C10.7422 3.58805 10.4022 3.24805 9.79319 3.24805H6.92219C4.48469 3.24805 3.24219 4.45505 3.24219 6.86905V9.74055C3.24219 10.3615 3.58219 10.701 4.19169 10.701ZM23.8087 10.701C24.4297 10.701 24.7582 10.361 24.7582 9.74005V6.86905C24.7582 4.45505 23.5392 3.24805 21.0782 3.24805H18.2187C17.5977 3.24805 17.2582 3.58805 17.2582 4.18555C17.2582 4.79505 17.5982 5.13505 18.2187 5.13505H21.0547C22.2032 5.13505 22.8712 5.75605 22.8712 6.97505V9.74005C22.8712 10.3615 23.2112 10.701 23.8087 10.701ZM13.4962 12.986V8.89655C13.4962 8.61555 13.2737 8.38105 12.9807 8.38105H8.90269C8.60969 8.38105 8.38669 8.61505 8.38669 8.89655V12.9865C8.38669 13.2675 8.60969 13.4905 8.90269 13.4905H12.9807C13.2737 13.4905 13.4962 13.267 13.4962 12.986ZM15.5237 9.40105H18.5937V12.471H15.5237V9.40105ZM17.7037 11.581V10.303H16.4262V11.5805L17.7037 11.581ZM11.5862 11.581V10.303H10.2972V11.5805L11.5862 11.581ZM9.40619 15.53H12.4767V18.6H9.40669L9.40619 15.53ZM19.4612 15.928V14.651H18.1837V15.9285L19.4612 15.928ZM15.9337 15.928V14.651H14.6562V15.9285L15.9337 15.928ZM11.5862 17.698V16.42H10.2972V17.697L11.5862 17.698ZM17.7032 17.698V16.42H16.4142V17.697L17.7032 17.698ZM18.2187 24.7525H21.0787C23.5392 24.7525 24.7582 23.5335 24.7582 21.1195V18.26C24.7582 17.6385 24.4182 17.299 23.8087 17.299C23.1992 17.299 22.8712 17.639 22.8712 18.26V21.025C22.8712 22.244 22.2032 22.865 21.0547 22.865H18.2187C17.5977 22.865 17.2582 23.205 17.2582 23.8145C17.2582 24.412 17.5982 24.7525 18.2187 24.7525ZM6.92219 24.752H9.79319C10.4027 24.752 10.7422 24.412 10.7422 23.8145C10.7422 23.205 10.4022 22.8655 9.79319 22.8655H6.95719C5.78519 22.8655 5.12919 22.244 5.12919 21.0255V18.26C5.12919 17.6385 4.78919 17.299 4.19169 17.299C3.57069 17.299 3.24219 17.639 3.24219 18.26V21.119C3.24219 23.545 4.48469 24.752 6.92219 24.752ZM15.9337 19.467V18.1895H14.6562V19.467H15.9337ZM19.4612 19.467V18.1895H18.1837V19.467H19.4612ZM19.6137 12.9865V8.89655C19.6137 8.61555 19.3907 8.38105 19.0977 8.38105H15.0202C14.7272 8.38105 14.5047 8.61505 14.5047 8.89655V12.9865C14.5047 13.2675 14.7272 13.4905 15.0197 13.4905H19.0982C19.3912 13.4905 19.6137 13.2675 19.6137 12.9865ZM9.40619 9.40005H12.4767V12.47H9.40669L9.40619 9.40005ZM13.4962 19.103V15.013C13.4962 14.732 13.2737 14.5095 12.9807 14.5095H8.90269C8.60969 14.5095 8.38669 14.732 8.38669 15.013V19.103C8.38669 19.3845 8.60969 19.6185 8.90269 19.6185H12.9807C13.2737 19.6185 13.4962 19.3845 13.4962 19.103Z" fill="black"/>
</svg>
