<svg width="24" height="24" viewBox="0 0 24 24" fill="none" xmlns="http://www.w3.org/2000/svg">
<g clip-path="url(#clip0_29_1893)">
<path d="M12 0C5.37262 0 0 5.37262 0 12C0 18.6278 5.37262 24 12 24C18.6278 24 24.0004 18.6278 24.0004 12C24.0004 5.37262 18.6278 0 12 0ZM12 22.5236C6.21037 22.5236 1.5 17.7896 1.5 12C1.5 6.21033 6.21037 1.49995 12 1.49995C17.7896 1.49995 22.5004 6.21035 22.5004 12C22.5004 17.7896 17.7896 22.5236 12 22.5236ZM10.8971 18.7612H12.7841V16.857H10.8971V18.7612ZM11.9779 5.2391C10.8791 5.2391 9.9739 5.53535 9.2629 6.12713C8.5519 6.71923 8.20615 7.90498 8.22377 8.88748L8.25152 8.94223H9.97277C9.97277 8.3561 10.1681 7.51385 10.5589 7.2116C10.9493 6.90973 11.4225 6.7586 11.9783 6.7586C12.6188 6.7586 13.1111 6.9326 13.4565 7.28058C13.8015 7.62858 13.9736 8.1262 13.9736 8.7727C13.9736 9.31608 13.8461 9.77995 13.59 10.1643C13.3331 10.5487 12.9026 11.0981 12.2989 11.8125C11.676 12.3742 11.2913 12.8257 11.145 13.1674C10.9984 13.5094 10.9223 14.1229 10.9166 15.0075H12.7204C12.7204 14.4525 12.7556 14.0434 12.8258 13.7809C12.8955 13.5187 13.0954 13.2225 13.425 12.8929C14.1334 12.2096 14.7023 11.5414 15.1331 10.8878C15.5629 10.2349 15.7781 9.51448 15.7781 8.72698C15.7781 7.62823 15.4459 6.7721 14.7803 6.15898C14.1143 5.54548 13.1801 5.2391 11.9779 5.2391Z" fill="black"/>
</g>
<defs>
<clipPath id="clip0_29_1893">
<rect width="24" height="24" fill="white"/>
</clipPath>
</defs>
</svg>
