<svg width="24" height="24" viewBox="0 0 24 24" fill="none" xmlns="http://www.w3.org/2000/svg">
<path d="M10.272 3.705C10.3764 3.87205 10.4469 4.05801 10.4794 4.25229C10.5119 4.44657 10.5059 4.64536 10.4616 4.83729C10.4173 5.02923 10.3356 5.21057 10.2213 5.37095C10.1069 5.53132 9.96204 5.6676 9.795 5.772C7.96935 6.90915 6.51901 8.55877 5.625 10.515C6.52783 10.4395 7.43243 10.6383 8.22044 11.0853C9.00845 11.5324 9.64317 12.2068 10.0416 13.0205C10.44 13.8342 10.5835 14.7492 10.4533 15.6458C10.3232 16.5424 9.92544 17.3788 9.31213 18.0456C8.69883 18.7125 7.89853 19.1786 7.01593 19.3832C6.13334 19.5877 5.20957 19.5211 4.36546 19.192C3.52136 18.8629 2.79624 18.2867 2.28498 17.5388C1.77372 16.7908 1.50013 15.906 1.5 15V14.9595C1.50163 14.8434 1.50663 14.7273 1.515 14.6115C1.5285 14.3865 1.5555 14.0715 1.608 13.6845C1.713 12.915 1.9185 11.8545 2.334 10.6635C3.162 8.2785 4.839 5.331 8.205 3.228C8.37204 3.1236 8.55801 3.05313 8.75229 3.0206C8.94657 2.98807 9.14535 2.99412 9.33729 3.03841C9.52923 3.08271 9.71056 3.16437 9.87094 3.27875C10.0313 3.39312 10.1676 3.53796 10.272 3.705ZM20.772 3.705C20.8764 3.87205 20.9469 4.05801 20.9794 4.25229C21.0119 4.44657 21.0059 4.64536 20.9616 4.83729C20.9173 5.02923 20.8356 5.21057 20.7213 5.37095C20.6069 5.53132 20.462 5.6676 20.295 5.772C18.4693 6.90915 17.019 8.55877 16.125 10.515C17.0278 10.4395 17.9324 10.6383 18.7204 11.0853C19.5084 11.5324 20.1432 12.2068 20.5416 13.0205C20.94 13.8342 21.0835 14.7492 20.9533 15.6458C20.8232 16.5424 20.4254 17.3788 19.8121 18.0456C19.1988 18.7125 18.3985 19.1786 17.5159 19.3832C16.6333 19.5877 15.7096 19.5211 14.8655 19.192C14.0214 18.8629 13.2962 18.2867 12.785 17.5388C12.2737 16.7908 12.0001 15.906 12 15V14.9595C12.0016 14.8434 12.0066 14.7273 12.015 14.6115C12.0285 14.3865 12.0555 14.0715 12.108 13.6845C12.213 12.915 12.4185 11.8545 12.834 10.6635C13.662 8.2785 15.339 5.331 18.705 3.228C18.872 3.1236 19.058 3.05313 19.2523 3.0206C19.4466 2.98807 19.6454 2.99412 19.8373 3.03841C20.0292 3.08271 20.2106 3.16437 20.3709 3.27875C20.5313 3.39312 20.6676 3.53796 20.772 3.705Z" fill="black"/>
</svg>
