<svg width="24" height="24" viewBox="0 0 24 24" fill="none" xmlns="http://www.w3.org/2000/svg">
<path d="M13 8.5C13 9.33 13.67 10 14.5 10C15.33 10 16 9.33 16 8.5V3.5C16 2.67 15.33 2 14.5 2C13.67 2 13 2.67 13 3.5V8.5Z" stroke="#1F2223" stroke-width="2" stroke-linecap="round" stroke-linejoin="round"/>
<path d="M19 10H20.5C21.33 10 22 9.33 22 8.5C22 7.67 21.33 7 20.5 7C19.67 7 19 7.67 19 8.5V10Z" stroke="#1F2223" stroke-width="2" stroke-linecap="round" stroke-linejoin="round"/>
<path d="M11 15.5C11 14.67 10.33 14 9.5 14C8.67 14 8 14.67 8 15.5V20.5C8 21.33 8.67 22 9.5 22C10.33 22 11 21.33 11 20.5V15.5Z" stroke="#1F2223" stroke-width="2" stroke-linecap="round" stroke-linejoin="round"/>
<path d="M5 14H3.5C2.67 14 2 14.67 2 15.5C2 16.33 2.67 17 3.5 17C4.33 17 5 16.33 5 15.5V14Z" stroke="#1F2223" stroke-width="2" stroke-linecap="round" stroke-linejoin="round"/>
<path d="M15.5 13C14.67 13 14 13.67 14 14.5C14 15.33 14.67 16 15.5 16H20.5C21.33 16 22 15.33 22 14.5C22 13.67 21.33 13 20.5 13H15.5Z" stroke="#1F2223" stroke-width="2" stroke-linecap="round" stroke-linejoin="round"/>
<path d="M14 19H15.5C16.33 19 17 19.67 17 20.5C17 21.33 16.33 22 15.5 22C14.67 22 14 21.33 14 20.5V19Z" stroke="#1F2223" stroke-width="2" stroke-linecap="round" stroke-linejoin="round"/>
<path d="M8.5 8C9.33 8 10 8.67 10 9.5C10 10.33 9.33 11 8.5 11H3.5C2.67 11 2 10.33 2 9.5C2 8.67 2.67 8 3.5 8H8.5Z" stroke="#1F2223" stroke-width="2" stroke-linecap="round" stroke-linejoin="round"/>
<path d="M10 5H8.5C7.67 5 7 4.33 7 3.5C7 2.67 7.67 2 8.5 2C9.33 2 10 2.67 10 3.5V5Z" stroke="#1F2223" stroke-width="2" stroke-linecap="round" stroke-linejoin="round"/>
</svg>
