<svg width="24" height="24" viewBox="0 0 24 24" fill="none" xmlns="http://www.w3.org/2000/svg">
<path fill-rule="evenodd" clip-rule="evenodd" d="M2 12C2 6.477 6.477 2 12 2C17.523 2 22 6.477 22 12C22 17.523 17.523 22 12 22C6.477 22 2 17.523 2 12ZM12 4C9.87827 4 7.84344 4.84285 6.34315 6.34315C4.84285 7.84344 4 9.87827 4 12C4 14.1217 4.84285 16.1566 6.34315 17.6569C7.84344 19.1571 9.87827 20 12 20C14.1217 20 16.1566 19.1571 17.6569 17.6569C19.1571 16.1566 20 14.1217 20 12C20 9.87827 19.1571 7.84344 17.6569 6.34315C16.1566 4.84285 14.1217 4 12 4Z" fill="black"/>
<path d="M10.29 17.41C10.4144 17.4521 10.5459 17.4693 10.677 17.4606C10.8081 17.4519 10.9361 17.4174 11.0539 17.3592C11.1717 17.301 11.2768 17.2201 11.3633 17.1213C11.4498 17.0224 11.5159 16.9074 11.558 16.783C11.845 15.935 12.694 15.392 13.371 15.211C14.047 15.03 15.054 15.075 15.727 15.666C15.927 15.8348 16.1853 15.9185 16.4463 15.899C16.7074 15.8796 16.9504 15.7586 17.1231 15.5619C17.2959 15.3653 17.3848 15.1088 17.3705 14.8474C17.3563 14.5861 17.2401 14.3407 17.047 14.164C15.695 12.976 13.909 12.996 12.853 13.279C11.797 13.562 10.24 14.438 9.663 16.142C9.62088 16.2664 9.60369 16.3979 9.6124 16.529C9.62112 16.6601 9.65557 16.7881 9.7138 16.9059C9.77203 17.0237 9.85288 17.1288 9.95175 17.2153C10.0506 17.3018 10.1656 17.3679 10.29 17.41ZM8.75 11.25C9.14782 11.25 9.52936 11.092 9.81066 10.8107C10.092 10.5294 10.25 10.1478 10.25 9.75C10.25 9.35218 10.092 8.97064 9.81066 8.68934C9.52936 8.40804 9.14782 8.25 8.75 8.25C8.35218 8.25 7.97064 8.40804 7.68934 8.68934C7.40804 8.97064 7.25 9.35218 7.25 9.75C7.25 10.1478 7.40804 10.5294 7.68934 10.8107C7.97064 11.092 8.35218 11.25 8.75 11.25ZM15.25 11.25C15.6478 11.25 16.0294 11.092 16.3107 10.8107C16.592 10.5294 16.75 10.1478 16.75 9.75C16.75 9.35218 16.592 8.97064 16.3107 8.68934C16.0294 8.40804 15.6478 8.25 15.25 8.25C14.8522 8.25 14.4706 8.40804 14.1893 8.68934C13.908 8.97064 13.75 9.35218 13.75 9.75C13.75 10.1478 13.908 10.5294 14.1893 10.8107C14.4706 11.092 14.8522 11.25 15.25 11.25Z" fill="black"/>
</svg>
