<svg width="24" height="24" viewBox="0 0 24 24" fill="none" xmlns="http://www.w3.org/2000/svg">
<g clip-path="url(#clip0_1_1941)">
<path d="M14 3.5V14.76C14.8027 15.2963 15.4117 16.0766 15.7369 16.9856C16.0622 17.8946 16.0865 18.8841 15.8062 19.8079C15.526 20.7317 14.9561 21.541 14.1807 22.1161C13.4052 22.6912 12.4654 23.0017 11.5 23.0017C10.5346 23.0017 9.59476 22.6912 8.81934 22.1161C8.04391 21.541 7.47399 20.7317 7.19376 19.8079C6.91352 18.8841 6.93782 17.8946 7.26307 16.9856C7.58832 16.0766 8.19728 15.2963 9 14.76V3.5C9 2.83696 9.26339 2.20107 9.73223 1.73223C10.2011 1.26339 10.837 1 11.5 1C12.163 1 12.7989 1.26339 13.2678 1.73223C13.7366 2.20107 14 2.83696 14 3.5Z" stroke="#1F2223" stroke-width="2" stroke-linecap="round" stroke-linejoin="round"/>
</g>
<defs>
<clipPath id="clip0_1_1941">
<rect width="24" height="24" fill="white"/>
</clipPath>
</defs>
</svg>
