<svg width="24" height="24" viewBox="0 0 24 24" fill="none" xmlns="http://www.w3.org/2000/svg">
<path d="M16.5997 5.82C15.9163 5.03953 15.5396 4.0374 15.5397 3H12.4497V15.4C12.4263 16.0712 12.1432 16.7071 11.66 17.1735C11.1768 17.6399 10.5313 17.9004 9.85967 17.9C8.43967 17.9 7.25967 16.74 7.25967 15.3C7.25967 13.58 8.91967 12.29 10.6297 12.82V9.66C7.17967 9.2 4.15967 11.88 4.15967 15.3C4.15967 18.63 6.91967 21 9.84967 21C12.9897 21 15.5397 18.45 15.5397 15.3V9.01C16.7927 9.90985 18.297 10.3926 19.8397 10.39V7.3C19.8397 7.3 17.9597 7.39 16.5997 5.82Z" fill="black"/>
</svg>
