<svg width="24" height="24" viewBox="0 0 24 24" fill="none" xmlns="http://www.w3.org/2000/svg">
<path d="M14.414 6.99998C14.414 6.73823 14.5166 6.48691 14.6999 6.29998L14.7099 6.28998L18.4699 2.52998C17.3587 2.02714 16.1206 1.8749 14.9207 2.09352C13.7208 2.31215 12.616 2.89127 11.7536 3.7537C10.8911 4.61614 10.312 5.72092 10.0934 6.92083C9.87477 8.12075 10.027 9.35879 10.5299 10.47L3.61986 17.38C3.22203 17.7778 2.99854 18.3174 2.99854 18.88C2.99854 19.4426 3.22203 19.9822 3.61986 20.38C4.01768 20.7778 4.55725 21.0013 5.11986 21.0013C5.68246 21.0013 6.22203 20.7778 6.61986 20.38L13.5299 13.47C14.641 13.9728 15.8791 14.1251 17.079 13.9064C18.2789 13.6878 19.3837 13.1087 20.2461 12.2463C21.1086 11.3838 21.6877 10.279 21.9063 9.07913C22.1249 7.87921 21.9727 6.64117 21.4699 5.52998L17.6999 9.29998C17.5129 9.48321 17.2616 9.58584 16.9999 9.58584C16.7381 9.58584 16.4868 9.48321 16.2999 9.29998L14.6999 7.69998C14.5166 7.51305 14.414 7.26173 14.414 6.99998Z" stroke="#1F2223" stroke-width="2" stroke-linecap="round" stroke-linejoin="round"/>
</svg>
