<svg width="24" height="24" viewBox="0 0 24 24" fill="none" xmlns="http://www.w3.org/2000/svg">
<path d="M19.86 4.53005C20.9821 4.19216 22.0424 3.67552 23 3.00005C22.6608 4.39276 21.9406 5.66354 20.92 6.67005C20.9723 6.94364 20.9991 7.2215 21 7.50005C21 19 10 24 1 19C3.48716 19.099 5.94053 18.398 8 17C-1 13 3 4.00005 3 4.00005C4.01032 5.43868 5.36074 6.60513 6.93101 7.39549C8.50127 8.18586 10.2426 8.57561 12 8.53005V7.53005C11.9877 6.61238 12.2575 5.71308 12.773 4.95376C13.2884 4.19445 14.0247 3.61176 14.8821 3.2845C15.7395 2.95724 16.6767 2.90121 17.567 3.12397C18.4573 3.34674 19.2577 3.83756 19.86 4.53005Z" stroke="#1F2223" stroke-width="2" stroke-linecap="round" stroke-linejoin="round"/>
</svg>
