<svg width="32" height="32" viewBox="0 0 32 32" fill="none" xmlns="http://www.w3.org/2000/svg">
<path d="M8.00008 26.6667C6.53341 26.6667 5.27786 26.1445 4.23341 25.1C3.18897 24.0556 2.66675 22.8 2.66675 21.3334V10.6667C2.66675 9.20004 3.18897 7.94449 4.23341 6.90004C5.27786 5.8556 6.53341 5.33337 8.00008 5.33337H24.0001C25.4667 5.33337 26.7223 5.8556 27.7668 6.90004C28.8112 7.94449 29.3334 9.20004 29.3334 10.6667V21.3334C29.3334 22.8 28.8112 24.0556 27.7668 25.1C26.7223 26.1445 25.4667 26.6667 24.0001 26.6667H8.00008ZM8.00008 10.6667H24.0001C24.489 10.6667 24.9556 10.7223 25.4001 10.8334C25.8445 10.9445 26.2667 11.1223 26.6667 11.3667V10.6667C26.6667 9.93337 26.4059 9.30582 25.8841 8.78404C25.3623 8.26226 24.7343 8.00093 24.0001 8.00004H8.00008C7.26675 8.00004 6.63919 8.26137 6.11741 8.78404C5.59564 9.30671 5.3343 9.93426 5.33341 10.6667V11.3667C5.73341 11.1223 6.15564 10.9445 6.60008 10.8334C7.04453 10.7223 7.51119 10.6667 8.00008 10.6667ZM5.53341 15L20.3667 18.6C20.5667 18.6445 20.7667 18.6445 20.9667 18.6C21.1667 18.5556 21.3556 18.4667 21.5334 18.3334L26.1667 14.4667C25.9223 14.1334 25.6112 13.8614 25.2334 13.6507C24.8556 13.44 24.4445 13.3343 24.0001 13.3334H8.00008C7.4223 13.3334 6.91697 13.4836 6.48408 13.784C6.05119 14.0845 5.7343 14.4898 5.53341 15Z" fill="#E2E7F0"/>
</svg>
